<svg xmlns="http://www.w3.org/2000/svg" xmlns:xlink="http://www.w3.org/1999/xlink" width="1080" zoomAndPan="magnify" viewBox="0 0 810 1439.999935" height="1920" preserveAspectRatio="xMidYMid meet" version="1.0"><defs><g/><clipPath id="63c1369621"><path d="M 0.0390625 0.398438 L 48 0.398438 L 48 102 L 0.0390625 102 Z M 0.0390625 0.398438 " clip-rule="nonzero"/></clipPath><clipPath id="2bb3991347"><rect x="0" width="48" y="0" height="102"/></clipPath><clipPath id="5eca9deee5"><path d="M 125 58 L 154 58 L 154 102.398438 L 125 102.398438 Z M 125 58 " clip-rule="nonzero"/></clipPath><clipPath id="96d2ee6865"><path d="M 147 58 L 176 58 L 176 102.398438 L 147 102.398438 Z M 147 58 " clip-rule="nonzero"/></clipPath><clipPath id="bb6d9fe23f"><rect x="0" width="177" y="0" height="103"/></clipPath></defs><g transform="matrix(1, 0, 0, 1, 83, 80)"><g clip-path="url(#bb6d9fe23f)"><g clip-path="url(#63c1369621)"><g transform="matrix(1, 0, 0, 1, 0, -0.000000000000099476)"><g clip-path="url(#2bb3991347)"><g fill="#ffa114" fill-opacity="1"><g transform="translate(1.411272, 79.317195)"><g><path d="M 0.921875 -58.859375 L 22.796875 -58.859375 L 22.796875 -21.28125 L 44.3125 -21.28125 L 44.3125 0 L 0.921875 0 Z M 0.921875 -58.859375 "/></g></g></g></g></g></g><g fill="#fdf3c0" fill-opacity="1"><g transform="translate(30.55493, 66.10468)"><g><path d="M 19.027344 4.117188 C 16.066406 4.117188 13.265625 3.554688 10.632812 2.433594 C 8.015625 1.320312 5.710938 -0.234375 3.722656 -2.222656 C 1.730469 -4.214844 0.179688 -6.515625 -0.9375 -9.132812 C -2.058594 -11.769531 -2.621094 -14.570312 -2.621094 -17.53125 C -2.621094 -20.539062 -2.058594 -23.351562 -0.933594 -25.96875 C 0.183594 -28.558594 1.734375 -30.851562 3.722656 -32.835938 C 5.710938 -34.828125 8.015625 -36.378906 10.632812 -37.496094 C 13.265625 -38.617188 16.066406 -39.179688 19.027344 -39.179688 C 22.035156 -39.179688 24.847656 -38.617188 27.464844 -37.492188 C 30.058594 -36.375 32.347656 -34.824219 34.335938 -32.835938 C 36.324219 -30.851562 37.875 -28.558594 38.988281 -25.96875 C 40.113281 -23.351562 40.675781 -20.539062 40.675781 -17.53125 C 40.675781 -14.570312 40.113281 -11.769531 38.992188 -9.132812 C 37.878906 -6.515625 36.324219 -4.214844 34.335938 -2.222656 C 32.347656 -0.234375 30.058594 1.316406 27.464844 2.429688 C 24.847656 3.554688 22.035156 4.117188 19.027344 4.117188 Z M 19.027344 -2.121094 C 21.179688 -2.121094 23.167969 -2.515625 25 -3.300781 C 26.859375 -4.101562 28.5 -5.210938 29.921875 -6.636719 C 31.34375 -8.054688 32.453125 -9.703125 33.25 -11.578125 C 34.042969 -13.433594 34.4375 -15.417969 34.4375 -17.53125 C 34.4375 -19.679688 34.042969 -21.671875 33.257812 -23.503906 C 32.457031 -25.363281 31.347656 -27.003906 29.921875 -28.425781 C 28.5 -29.847656 26.859375 -30.960938 25 -31.757812 C 23.167969 -32.546875 21.179688 -32.941406 19.027344 -32.941406 C 16.914062 -32.941406 14.929688 -32.546875 13.074219 -31.753906 C 11.199219 -30.957031 9.554688 -29.847656 8.132812 -28.425781 C 6.710938 -27.003906 5.597656 -25.363281 4.800781 -23.503906 C 4.011719 -21.671875 3.617188 -19.679688 3.617188 -17.53125 C 3.617188 -15.417969 4.015625 -13.433594 4.804688 -11.578125 C 5.601562 -9.703125 6.710938 -8.054688 8.132812 -6.636719 C 9.554688 -5.214844 11.199219 -4.105469 13.074219 -3.308594 C 14.929688 -2.515625 16.914062 -2.121094 19.027344 -2.121094 Z M 19.027344 -17.59375 C 19.015625 -17.59375 19.003906 -17.585938 18.988281 -17.570312 C 18.972656 -17.554688 18.964844 -17.542969 18.964844 -17.53125 C 18.964844 -17.519531 18.972656 -17.503906 18.988281 -17.492188 C 19.003906 -17.476562 19.015625 -17.46875 19.027344 -17.46875 C 19.039062 -17.46875 19.054688 -17.476562 19.066406 -17.492188 C 19.082031 -17.503906 19.089844 -17.519531 19.089844 -17.53125 C 19.089844 -17.542969 19.082031 -17.554688 19.066406 -17.570312 C 19.054688 -17.585938 19.039062 -17.59375 19.027344 -17.59375 Z M 19.027344 -23.832031 C 20.761719 -23.832031 22.246094 -23.214844 23.480469 -21.984375 C 24.710938 -20.75 25.328125 -19.265625 25.328125 -17.53125 C 25.328125 -15.796875 24.710938 -14.3125 23.480469 -13.078125 C 22.246094 -11.847656 20.761719 -11.230469 19.027344 -11.230469 C 17.292969 -11.230469 15.808594 -11.847656 14.578125 -13.078125 C 13.34375 -14.3125 12.726562 -15.796875 12.726562 -17.53125 C 12.726562 -19.265625 13.34375 -20.75 14.578125 -21.984375 C 15.808594 -23.214844 17.292969 -23.832031 19.027344 -23.832031 Z M 19.027344 -23.832031 "/></g></g></g><g fill="#ffa114" fill-opacity="1"><g transform="translate(30.55493, 66.10468)"><g><path d="M 19.03125 1 C 16.488281 1 14.09375 0.519531 11.84375 -0.4375 C 9.601562 -1.394531 7.628906 -2.722656 5.921875 -4.421875 C 4.222656 -6.128906 2.894531 -8.101562 1.9375 -10.34375 C 0.976562 -12.59375 0.5 -14.988281 0.5 -17.53125 C 0.5 -20.113281 0.976562 -22.515625 1.9375 -24.734375 C 2.894531 -26.960938 4.222656 -28.925781 5.921875 -30.625 C 7.628906 -32.332031 9.601562 -33.664062 11.84375 -34.625 C 14.09375 -35.582031 16.488281 -36.0625 19.03125 -36.0625 C 21.601562 -36.0625 24.003906 -35.582031 26.234375 -34.625 C 28.460938 -33.664062 30.425781 -32.332031 32.125 -30.625 C 33.832031 -28.925781 35.164062 -26.960938 36.125 -24.734375 C 37.082031 -22.515625 37.5625 -20.113281 37.5625 -17.53125 C 37.5625 -14.988281 37.082031 -12.59375 36.125 -10.34375 C 35.164062 -8.101562 33.832031 -6.128906 32.125 -4.421875 C 30.425781 -2.722656 28.460938 -1.394531 26.234375 -0.4375 C 24.003906 0.519531 21.601562 1 19.03125 1 Z M 19.03125 -20.71875 C 18.15625 -20.71875 17.40625 -20.40625 16.78125 -19.78125 C 16.15625 -19.15625 15.84375 -18.40625 15.84375 -17.53125 C 15.84375 -16.65625 16.15625 -15.90625 16.78125 -15.28125 C 17.40625 -14.65625 18.15625 -14.34375 19.03125 -14.34375 C 19.90625 -14.34375 20.65625 -14.65625 21.28125 -15.28125 C 21.90625 -15.90625 22.21875 -16.65625 22.21875 -17.53125 C 22.21875 -18.40625 21.90625 -19.15625 21.28125 -19.78125 C 20.65625 -20.40625 19.90625 -20.71875 19.03125 -20.71875 Z M 19.03125 -20.71875 "/></g></g></g><g fill="#fdf3c0" fill-opacity="1"><g transform="translate(53.861215, 85.007909)"><g><path d="M 19.113281 4.136719 C 16.136719 4.136719 13.328125 3.570312 10.679688 2.445312 C 8.050781 1.324219 5.738281 -0.234375 3.738281 -2.234375 C 1.738281 -4.234375 0.179688 -6.546875 -0.941406 -9.175781 C -2.066406 -11.824219 -2.632812 -14.632812 -2.632812 -17.609375 C -2.632812 -20.628906 -2.066406 -23.453125 -0.9375 -26.082031 C 0.183594 -28.6875 1.742188 -30.988281 3.738281 -32.984375 C 5.738281 -34.980469 8.050781 -36.542969 10.679688 -37.660156 C 13.328125 -38.789062 16.136719 -39.351562 19.113281 -39.351562 C 22.132812 -39.351562 24.957031 -38.789062 27.585938 -37.65625 C 30.191406 -36.539062 32.492188 -34.980469 34.488281 -32.984375 C 36.484375 -30.988281 38.042969 -28.6875 39.160156 -26.082031 C 40.292969 -23.453125 40.855469 -20.628906 40.855469 -17.609375 C 40.855469 -14.632812 40.292969 -11.824219 39.164062 -9.175781 C 38.046875 -6.546875 36.484375 -4.234375 34.488281 -2.234375 C 32.492188 -0.238281 30.191406 1.320312 27.585938 2.441406 C 24.957031 3.570312 22.132812 4.136719 19.113281 4.136719 Z M 19.113281 -2.128906 C 21.273438 -2.128906 23.273438 -2.527344 25.113281 -3.316406 C 26.980469 -4.121094 28.628906 -5.234375 30.054688 -6.664062 C 31.484375 -8.089844 32.597656 -9.746094 33.398438 -11.628906 C 34.191406 -13.492188 34.589844 -15.488281 34.589844 -17.609375 C 34.589844 -19.769531 34.195312 -21.769531 33.402344 -23.609375 C 32.601562 -25.476562 31.484375 -27.121094 30.054688 -28.550781 C 28.628906 -29.980469 26.980469 -31.097656 25.113281 -31.898438 C 23.273438 -32.691406 21.273438 -33.085938 19.113281 -33.085938 C 16.992188 -33.085938 14.996094 -32.6875 13.132812 -31.894531 C 11.25 -31.09375 9.59375 -29.980469 8.167969 -28.550781 C 6.738281 -27.121094 5.625 -25.476562 4.820312 -23.609375 C 4.03125 -21.769531 3.632812 -19.769531 3.632812 -17.609375 C 3.632812 -15.488281 4.03125 -13.492188 4.824219 -11.628906 C 5.628906 -9.746094 6.742188 -8.089844 8.167969 -6.664062 C 9.59375 -5.238281 11.25 -4.125 13.132812 -3.320312 C 14.996094 -2.527344 16.992188 -2.128906 19.113281 -2.128906 Z M 19.113281 -17.671875 C 19.101562 -17.671875 19.085938 -17.664062 19.070312 -17.648438 C 19.058594 -17.632812 19.050781 -17.621094 19.050781 -17.609375 C 19.050781 -17.597656 19.058594 -17.582031 19.070312 -17.566406 C 19.085938 -17.554688 19.101562 -17.546875 19.113281 -17.546875 C 19.125 -17.546875 19.136719 -17.554688 19.152344 -17.566406 C 19.167969 -17.582031 19.175781 -17.597656 19.175781 -17.609375 C 19.175781 -17.621094 19.167969 -17.632812 19.152344 -17.648438 C 19.136719 -17.664062 19.125 -17.671875 19.113281 -17.671875 Z M 19.113281 -23.9375 C 20.855469 -23.9375 22.34375 -23.316406 23.582031 -22.078125 C 24.820312 -20.839844 25.441406 -19.351562 25.441406 -17.609375 C 25.441406 -15.867188 24.820312 -14.375 23.582031 -13.136719 C 22.34375 -11.898438 20.855469 -11.28125 19.113281 -11.28125 C 17.371094 -11.28125 15.878906 -11.898438 14.640625 -13.136719 C 13.402344 -14.375 12.785156 -15.867188 12.785156 -17.609375 C 12.785156 -19.351562 13.402344 -20.839844 14.640625 -22.078125 C 15.878906 -23.316406 17.371094 -23.9375 19.113281 -23.9375 Z M 19.113281 -23.9375 "/></g></g></g><g fill="#ffa114" fill-opacity="1"><g transform="translate(53.861215, 85.007909)"><g><path d="M 19.109375 1 C 16.554688 1 14.148438 0.519531 11.890625 -0.4375 C 9.640625 -1.394531 7.660156 -2.726562 5.953125 -4.4375 C 4.242188 -6.15625 2.90625 -8.140625 1.9375 -10.390625 C 0.976562 -12.648438 0.5 -15.054688 0.5 -17.609375 C 0.5 -20.191406 0.976562 -22.597656 1.9375 -24.828125 C 2.90625 -27.066406 4.242188 -29.039062 5.953125 -30.75 C 7.660156 -32.46875 9.640625 -33.804688 11.890625 -34.765625 C 14.148438 -35.734375 16.554688 -36.21875 19.109375 -36.21875 C 21.703125 -36.21875 24.113281 -35.734375 26.34375 -34.765625 C 28.582031 -33.804688 30.554688 -32.46875 32.265625 -30.75 C 33.984375 -29.039062 35.320312 -27.066406 36.28125 -24.828125 C 37.238281 -22.597656 37.71875 -20.191406 37.71875 -17.609375 C 37.71875 -15.054688 37.238281 -12.648438 36.28125 -10.390625 C 35.320312 -8.140625 33.984375 -6.15625 32.265625 -4.4375 C 30.554688 -2.726562 28.582031 -1.394531 26.34375 -0.4375 C 24.113281 0.519531 21.703125 1 19.109375 1 Z M 19.109375 -20.796875 C 18.234375 -20.796875 17.484375 -20.484375 16.859375 -19.859375 C 16.234375 -19.234375 15.921875 -18.484375 15.921875 -17.609375 C 15.921875 -16.734375 16.234375 -15.976562 16.859375 -15.34375 C 17.484375 -14.71875 18.234375 -14.40625 19.109375 -14.40625 C 19.984375 -14.40625 20.734375 -14.71875 21.359375 -15.34375 C 21.992188 -15.976562 22.3125 -16.734375 22.3125 -17.609375 C 22.3125 -18.484375 21.992188 -19.234375 21.359375 -19.859375 C 20.734375 -20.484375 19.984375 -20.796875 19.109375 -20.796875 Z M 19.109375 -20.796875 "/></g></g></g><g fill="#ffa114" fill-opacity="1"><g transform="translate(85.231531, 80.512651)"><g><path d="M 29.59375 -10.546875 C 30 -10.546875 30.316406 -10.351562 30.546875 -9.96875 C 30.785156 -9.59375 30.90625 -9.070312 30.90625 -8.40625 C 30.90625 -7.144531 30.609375 -6.171875 30.015625 -5.484375 C 28.597656 -3.753906 27.160156 -2.367188 25.703125 -1.328125 C 24.253906 -0.285156 22.539062 0.234375 20.5625 0.234375 C 18.132812 0.234375 16.179688 -0.457031 14.703125 -1.84375 C 13.222656 -3.226562 12.484375 -5.070312 12.484375 -7.375 C 12.484375 -8.601562 13.113281 -9.484375 14.375 -10.015625 C 15.757812 -10.617188 16.75 -11.257812 17.34375 -11.9375 C 17.945312 -12.613281 18.25 -13.441406 18.25 -14.421875 C 18.25 -14.984375 18.128906 -15.40625 17.890625 -15.6875 C 17.648438 -15.976562 17.359375 -16.125 17.015625 -16.125 C 16.160156 -16.125 15.222656 -15.507812 14.203125 -14.28125 C 13.179688 -13.050781 12.226562 -11.460938 11.34375 -9.515625 C 10.457031 -7.578125 9.765625 -5.585938 9.265625 -3.546875 C 8.921875 -2.066406 8.519531 -1.066406 8.0625 -0.546875 C 7.601562 -0.0234375 6.882812 0.234375 5.90625 0.234375 C 4.925781 0.234375 4.207031 -0.117188 3.75 -0.828125 C 3.300781 -1.535156 2.992188 -2.628906 2.828125 -4.109375 C 2.671875 -5.585938 2.59375 -7.765625 2.59375 -10.640625 C 2.59375 -15.484375 3.085938 -20.535156 4.078125 -25.796875 C 5.078125 -31.066406 6.546875 -35.488281 8.484375 -39.0625 C 10.421875 -42.632812 12.742188 -44.421875 15.453125 -44.421875 C 16.898438 -44.421875 18.070312 -43.800781 18.96875 -42.5625 C 19.875 -41.320312 20.328125 -39.707031 20.328125 -37.71875 C 20.328125 -34.53125 19.394531 -31.226562 17.53125 -27.8125 C 15.675781 -24.394531 12.648438 -20.398438 8.453125 -15.828125 C 8.359375 -14.191406 8.3125 -12.507812 8.3125 -10.78125 C 9.832031 -14.71875 11.566406 -17.578125 13.515625 -19.359375 C 15.472656 -21.140625 17.300781 -22.03125 19 -22.03125 C 20.570312 -22.03125 21.835938 -21.492188 22.796875 -20.421875 C 23.765625 -19.347656 24.25 -18.023438 24.25 -16.453125 C 24.25 -14.710938 23.804688 -13.117188 22.921875 -11.671875 C 22.035156 -10.222656 20.523438 -8.929688 18.390625 -7.796875 C 18.515625 -6.941406 18.898438 -6.253906 19.546875 -5.734375 C 20.191406 -5.222656 20.972656 -4.96875 21.890625 -4.96875 C 22.859375 -4.96875 23.800781 -5.34375 24.71875 -6.09375 C 25.632812 -6.851562 26.832031 -8.113281 28.3125 -9.875 C 28.6875 -10.320312 29.113281 -10.546875 29.59375 -10.546875 Z M 14.46875 -39.75 C 13.894531 -39.75 13.257812 -38.9375 12.5625 -37.3125 C 11.875 -35.6875 11.207031 -33.492188 10.5625 -30.734375 C 9.914062 -27.984375 9.390625 -24.984375 8.984375 -21.734375 C 10.929688 -24.035156 12.539062 -26.539062 13.8125 -29.25 C 15.09375 -31.96875 15.734375 -34.425781 15.734375 -36.625 C 15.734375 -37.632812 15.625 -38.40625 15.40625 -38.9375 C 15.1875 -39.476562 14.875 -39.75 14.46875 -39.75 Z M 14.46875 -39.75 "/></g></g></g><g fill="#ffa114" fill-opacity="1"><g transform="translate(110.044993, 80.512651)"><g><path d="M 20.1875 -10.546875 C 20.59375 -10.546875 20.910156 -10.351562 21.140625 -9.96875 C 21.378906 -9.59375 21.5 -9.070312 21.5 -8.40625 C 21.5 -7.144531 21.203125 -6.171875 20.609375 -5.484375 C 19.253906 -3.816406 17.78125 -2.445312 16.1875 -1.375 C 14.59375 -0.300781 12.789062 0.234375 10.78125 0.234375 C 8 0.234375 5.9375 -1.023438 4.59375 -3.546875 C 3.257812 -6.066406 2.59375 -9.328125 2.59375 -13.328125 C 2.59375 -17.171875 3.085938 -21.550781 4.078125 -26.46875 C 5.078125 -31.382812 6.546875 -35.601562 8.484375 -39.125 C 10.421875 -42.65625 12.726562 -44.421875 15.40625 -44.421875 C 16.914062 -44.421875 18.101562 -43.71875 18.96875 -42.3125 C 19.84375 -40.914062 20.28125 -38.910156 20.28125 -36.296875 C 20.28125 -32.546875 19.238281 -28.195312 17.15625 -23.25 C 15.070312 -18.300781 12.253906 -13.40625 8.703125 -8.5625 C 8.921875 -7.257812 9.28125 -6.332031 9.78125 -5.78125 C 10.289062 -5.238281 10.953125 -4.96875 11.765625 -4.96875 C 13.054688 -4.96875 14.191406 -5.335938 15.171875 -6.078125 C 16.148438 -6.816406 17.394531 -8.082031 18.90625 -9.875 C 19.28125 -10.320312 19.707031 -10.546875 20.1875 -10.546875 Z M 14.375 -39.75 C 13.644531 -39.75 12.820312 -38.441406 11.90625 -35.828125 C 11 -33.210938 10.195312 -29.96875 9.5 -26.09375 C 8.800781 -22.21875 8.421875 -18.5 8.359375 -14.9375 C 10.597656 -18.625 12.378906 -22.316406 13.703125 -26.015625 C 15.023438 -29.722656 15.6875 -33.101562 15.6875 -36.15625 C 15.6875 -38.550781 15.25 -39.75 14.375 -39.75 Z M 14.375 -39.75 "/></g></g></g><g clip-path="url(#5eca9deee5)"><g fill="#ffa114" fill-opacity="1"><g transform="translate(125.452973, 80.512651)"><g><path d="M 26.46875 -10.453125 C 26.875 -10.453125 27.195312 -10.253906 27.4375 -9.859375 C 27.675781 -9.460938 27.796875 -8.960938 27.796875 -8.359375 C 27.796875 -7.640625 27.679688 -7.070312 27.453125 -6.65625 C 27.234375 -6.25 26.890625 -5.890625 26.421875 -5.578125 L 17.34375 0.515625 C 16.144531 7.035156 14.578125 12.160156 12.640625 15.890625 C 10.703125 19.628906 8.238281 21.5 5.25 21.5 C 3.632812 21.5 2.320312 21.003906 1.3125 20.015625 C 0.3125 19.023438 -0.1875 17.726562 -0.1875 16.125 C -0.1875 14.632812 0.148438 13.117188 0.828125 11.578125 C 1.503906 10.035156 2.765625 8.265625 4.609375 6.265625 C 6.453125 4.265625 9.0625 1.972656 12.4375 -0.609375 L 12.578125 -1.703125 C 12.796875 -2.867188 13.046875 -4.539062 13.328125 -6.71875 C 12.703125 -4.445312 11.820312 -2.71875 10.6875 -1.53125 C 9.550781 -0.351562 8.351562 0.234375 7.09375 0.234375 C 5.675781 0.234375 4.515625 -0.414062 3.609375 -1.71875 C 2.710938 -3.03125 2.265625 -4.660156 2.265625 -6.609375 C 2.265625 -8.972656 2.421875 -11.140625 2.734375 -13.109375 C 3.054688 -15.078125 3.578125 -17.164062 4.296875 -19.375 C 4.617188 -20.320312 5.0625 -21 5.625 -21.40625 C 6.1875 -21.820312 7.082031 -22.03125 8.3125 -22.03125 C 9.007812 -22.03125 9.488281 -21.914062 9.75 -21.6875 C 10.019531 -21.46875 10.15625 -21.140625 10.15625 -20.703125 C 10.15625 -20.453125 9.984375 -19.601562 9.640625 -18.15625 C 9.328125 -16.988281 9.078125 -15.929688 8.890625 -14.984375 C 8.628906 -13.691406 8.40625 -12.453125 8.21875 -11.265625 C 8.03125 -10.085938 7.9375 -9.117188 7.9375 -8.359375 C 7.9375 -7.160156 8.269531 -6.5625 8.9375 -6.5625 C 9.40625 -6.5625 9.992188 -7.035156 10.703125 -7.984375 C 11.410156 -8.929688 12.164062 -10.363281 12.96875 -12.28125 C 13.769531 -14.207031 14.550781 -16.570312 15.3125 -19.375 C 15.5625 -20.320312 15.945312 -21 16.46875 -21.40625 C 16.988281 -21.820312 17.769531 -22.03125 18.8125 -22.03125 C 19.539062 -22.03125 20.046875 -21.929688 20.328125 -21.734375 C 20.609375 -21.546875 20.75 -21.234375 20.75 -20.796875 C 20.75 -20.003906 20.335938 -17.296875 19.515625 -12.671875 L 18.296875 -5.0625 C 20.722656 -6.882812 23.082031 -8.550781 25.375 -10.0625 C 25.789062 -10.320312 26.15625 -10.453125 26.46875 -10.453125 Z M 5.765625 16.921875 C 6.554688 16.921875 7.4375 16.003906 8.40625 14.171875 C 9.382812 12.347656 10.363281 9.3125 11.34375 5.0625 C 8.914062 7.101562 7.15625 8.96875 6.0625 10.65625 C 4.976562 12.34375 4.4375 13.816406 4.4375 15.078125 C 4.4375 15.609375 4.539062 16.046875 4.75 16.390625 C 4.957031 16.742188 5.296875 16.921875 5.765625 16.921875 Z M 5.765625 16.921875 "/></g></g></g></g><g clip-path="url(#96d2ee6865)"><g fill="#ffa114" fill-opacity="1"><g transform="translate(147.572348, 80.512651)"><g><path d="M 26.46875 -10.453125 C 26.875 -10.453125 27.195312 -10.253906 27.4375 -9.859375 C 27.675781 -9.460938 27.796875 -8.960938 27.796875 -8.359375 C 27.796875 -7.640625 27.679688 -7.070312 27.453125 -6.65625 C 27.234375 -6.25 26.890625 -5.890625 26.421875 -5.578125 L 17.34375 0.515625 C 16.144531 7.035156 14.578125 12.160156 12.640625 15.890625 C 10.703125 19.628906 8.238281 21.5 5.25 21.5 C 3.632812 21.5 2.320312 21.003906 1.3125 20.015625 C 0.3125 19.023438 -0.1875 17.726562 -0.1875 16.125 C -0.1875 14.632812 0.148438 13.117188 0.828125 11.578125 C 1.503906 10.035156 2.765625 8.265625 4.609375 6.265625 C 6.453125 4.265625 9.0625 1.972656 12.4375 -0.609375 L 12.578125 -1.703125 C 12.796875 -2.867188 13.046875 -4.539062 13.328125 -6.71875 C 12.703125 -4.445312 11.820312 -2.71875 10.6875 -1.53125 C 9.550781 -0.351562 8.351562 0.234375 7.09375 0.234375 C 5.675781 0.234375 4.515625 -0.414062 3.609375 -1.71875 C 2.710938 -3.03125 2.265625 -4.660156 2.265625 -6.609375 C 2.265625 -8.972656 2.421875 -11.140625 2.734375 -13.109375 C 3.054688 -15.078125 3.578125 -17.164062 4.296875 -19.375 C 4.617188 -20.320312 5.0625 -21 5.625 -21.40625 C 6.1875 -21.820312 7.082031 -22.03125 8.3125 -22.03125 C 9.007812 -22.03125 9.488281 -21.914062 9.75 -21.6875 C 10.019531 -21.46875 10.15625 -21.140625 10.15625 -20.703125 C 10.15625 -20.453125 9.984375 -19.601562 9.640625 -18.15625 C 9.328125 -16.988281 9.078125 -15.929688 8.890625 -14.984375 C 8.628906 -13.691406 8.40625 -12.453125 8.21875 -11.265625 C 8.03125 -10.085938 7.9375 -9.117188 7.9375 -8.359375 C 7.9375 -7.160156 8.269531 -6.5625 8.9375 -6.5625 C 9.40625 -6.5625 9.992188 -7.035156 10.703125 -7.984375 C 11.410156 -8.929688 12.164062 -10.363281 12.96875 -12.28125 C 13.769531 -14.207031 14.550781 -16.570312 15.3125 -19.375 C 15.5625 -20.320312 15.945312 -21 16.46875 -21.40625 C 16.988281 -21.820312 17.769531 -22.03125 18.8125 -22.03125 C 19.539062 -22.03125 20.046875 -21.929688 20.328125 -21.734375 C 20.609375 -21.546875 20.75 -21.234375 20.75 -20.796875 C 20.75 -20.003906 20.335938 -17.296875 19.515625 -12.671875 L 18.296875 -5.0625 C 20.722656 -6.882812 23.082031 -8.550781 25.375 -10.0625 C 25.789062 -10.320312 26.15625 -10.453125 26.46875 -10.453125 Z M 5.765625 16.921875 C 6.554688 16.921875 7.4375 16.003906 8.40625 14.171875 C 9.382812 12.347656 10.363281 9.3125 11.34375 5.0625 C 8.914062 7.101562 7.15625 8.96875 6.0625 10.65625 C 4.976562 12.34375 4.4375 13.816406 4.4375 15.078125 C 4.4375 15.609375 4.539062 16.046875 4.75 16.390625 C 4.957031 16.742188 5.296875 16.921875 5.765625 16.921875 Z M 5.765625 16.921875 "/></g></g></g></g></g></g></svg>