<svg xmlns="http://www.w3.org/2000/svg" xmlns:xlink="http://www.w3.org/1999/xlink" width="600" zoomAndPan="magnify" viewBox="0 0 450 30.000001" height="40" preserveAspectRatio="xMidYMid meet" version="1.0"><defs><g/><clipPath id="528789a258"><path d="M 7.257812 0 L 442.742188 0 L 442.742188 29.03125 L 7.257812 29.03125 Z M 7.257812 0 " clip-rule="nonzero"/></clipPath><clipPath id="0c04ba6485"><path d="M 0.257812 0 L 435.742188 0 L 435.742188 29.03125 L 0.257812 29.03125 Z M 0.257812 0 " clip-rule="nonzero"/></clipPath><clipPath id="307870e4d1"><rect x="0" width="436" y="0" height="30"/></clipPath></defs><g clip-path="url(#528789a258)"><path fill="#ffffff" d="M 7.257812 0 L 442.742188 0 L 442.742188 29.03125 L 7.257812 29.03125 Z M 7.257812 0 " fill-opacity="1" fill-rule="nonzero"/><path fill="#ffffff" d="M 7.257812 0 L 442.742188 0 L 442.742188 29.03125 L 7.257812 29.03125 Z M 7.257812 0 " fill-opacity="1" fill-rule="nonzero"/><g transform="matrix(1, 0, 0, 1, 7, 0.000000000000005692)"><g clip-path="url(#307870e4d1)"><g clip-path="url(#0c04ba6485)"><path fill="#ffd864" d="M 0.257812 0 L 435.742188 0 L 435.742188 29.03125 L 0.257812 29.03125 Z M 0.257812 0 " fill-opacity="1" fill-rule="nonzero"/></g></g></g></g><g fill="#ffa114" fill-opacity="1"><g transform="translate(83.229579, 21.048389)"><g><path d="M 7.203125 -4.953125 L 8.109375 -12.4375 L 10.3125 -12.4375 L 8.59375 0 L 6.421875 0 L 5.234375 -7.34375 L 4.109375 0 L 1.9375 0 L 0.21875 -12.4375 L 2.421875 -12.4375 L 3.3125 -5 L 4.359375 -12.4375 L 6.078125 -12.4375 Z M 7.203125 -4.953125 "/></g></g></g><g fill="#ffa114" fill-opacity="1"><g transform="translate(93.730537, 21.048389)"><g><path d="M 8.78125 -5.453125 L 3.671875 -5.453125 L 3.671875 -1.9375 L 9.640625 -1.9375 L 9.640625 0 L 1.25 0 L 1.25 -12.4375 L 9.609375 -12.4375 L 9.609375 -10.484375 L 3.671875 -10.484375 L 3.671875 -7.34375 L 8.78125 -7.34375 Z M 8.78125 -5.453125 "/></g></g></g><g fill="#ffa114" fill-opacity="1"><g transform="translate(104.231495, 21.048389)"><g/></g></g><g fill="#ffa114" fill-opacity="1"><g transform="translate(114.732454, 21.048389)"><g><path d="M 7.234375 -2.59375 L 3.5 -2.59375 L 2.765625 0 L 0.234375 0 L 4.3125 -12.4375 L 6.5 -12.4375 L 10.5 0 L 7.96875 0 Z M 4.09375 -4.640625 L 6.671875 -4.640625 L 5.40625 -9.21875 Z M 4.09375 -4.640625 "/></g></g></g><g fill="#ffa114" fill-opacity="1"><g transform="translate(125.233412, 21.048389)"><g><path d="M 5.34375 -4.65625 L 3.515625 -4.65625 L 3.515625 0 L 1.125 0 L 1.125 -12.4375 L 5.296875 -12.4375 C 5.984375 -12.4375 6.601562 -12.351562 7.15625 -12.1875 C 7.71875 -12.03125 8.195312 -11.796875 8.59375 -11.484375 C 8.988281 -11.171875 9.289062 -10.78125 9.5 -10.3125 C 9.71875 -9.84375 9.828125 -9.300781 9.828125 -8.6875 C 9.828125 -8.25 9.773438 -7.847656 9.671875 -7.484375 C 9.566406 -7.128906 9.414062 -6.8125 9.21875 -6.53125 C 9.019531 -6.25 8.78125 -6.003906 8.5 -5.796875 C 8.226562 -5.585938 7.921875 -5.40625 7.578125 -5.25 L 10.25 -0.109375 L 10.25 0 L 7.6875 0 Z M 3.515625 -6.59375 L 5.296875 -6.59375 C 5.972656 -6.59375 6.492188 -6.765625 6.859375 -7.109375 C 7.234375 -7.453125 7.421875 -7.925781 7.421875 -8.53125 C 7.421875 -9.144531 7.238281 -9.625 6.875 -9.96875 C 6.519531 -10.320312 5.992188 -10.5 5.296875 -10.5 L 3.515625 -10.5 Z M 3.515625 -6.59375 "/></g></g></g><g fill="#ffa114" fill-opacity="1"><g transform="translate(135.73437, 21.048389)"><g><path d="M 8.78125 -5.453125 L 3.671875 -5.453125 L 3.671875 -1.9375 L 9.640625 -1.9375 L 9.640625 0 L 1.25 0 L 1.25 -12.4375 L 9.609375 -12.4375 L 9.609375 -10.484375 L 3.671875 -10.484375 L 3.671875 -7.34375 L 8.78125 -7.34375 Z M 8.78125 -5.453125 "/></g></g></g><g fill="#ffa114" fill-opacity="1"><g transform="translate(146.235329, 21.048389)"><g/></g></g><g fill="#ffa114" fill-opacity="1"><g transform="translate(156.736287, 21.048389)"><g><path d="M 8.78125 -5.453125 L 3.671875 -5.453125 L 3.671875 -1.9375 L 9.640625 -1.9375 L 9.640625 0 L 1.25 0 L 1.25 -12.4375 L 9.609375 -12.4375 L 9.609375 -10.484375 L 3.671875 -10.484375 L 3.671875 -7.34375 L 8.78125 -7.34375 Z M 8.78125 -5.453125 "/></g></g></g><g fill="#ffa114" fill-opacity="1"><g transform="translate(167.237245, 21.048389)"><g><path d="M 5.328125 -7.984375 L 7.546875 -12.4375 L 10.359375 -12.4375 L 6.859375 -6.265625 L 10.453125 0 L 7.640625 0 L 5.359375 -4.53125 L 3.09375 0 L 0.25 0 L 3.84375 -6.265625 L 0.34375 -12.4375 L 3.15625 -12.4375 Z M 5.328125 -7.984375 "/></g></g></g><g fill="#ffa114" fill-opacity="1"><g transform="translate(177.738203, 21.048389)"><g><path d="M 3.671875 -4.5625 L 3.671875 0 L 1.265625 0 L 1.265625 -12.4375 L 5.53125 -12.4375 C 6.207031 -12.4375 6.816406 -12.335938 7.359375 -12.140625 C 7.910156 -11.953125 8.378906 -11.679688 8.765625 -11.328125 C 9.148438 -10.972656 9.445312 -10.550781 9.65625 -10.0625 C 9.863281 -9.570312 9.96875 -9.03125 9.96875 -8.4375 C 9.96875 -7.875 9.863281 -7.351562 9.65625 -6.875 C 9.445312 -6.40625 9.148438 -6 8.765625 -5.65625 C 8.378906 -5.3125 7.910156 -5.039062 7.359375 -4.84375 C 6.816406 -4.65625 6.207031 -4.5625 5.53125 -4.5625 Z M 3.671875 -6.515625 L 5.53125 -6.515625 C 5.875 -6.515625 6.171875 -6.5625 6.421875 -6.65625 C 6.671875 -6.757812 6.878906 -6.898438 7.046875 -7.078125 C 7.210938 -7.253906 7.335938 -7.457031 7.421875 -7.6875 C 7.503906 -7.925781 7.546875 -8.171875 7.546875 -8.421875 C 7.546875 -8.710938 7.503906 -8.984375 7.421875 -9.234375 C 7.335938 -9.484375 7.210938 -9.703125 7.046875 -9.890625 C 6.878906 -10.078125 6.671875 -10.222656 6.421875 -10.328125 C 6.171875 -10.441406 5.875 -10.5 5.53125 -10.5 L 3.671875 -10.5 Z M 3.671875 -6.515625 "/></g></g></g><g fill="#ffa114" fill-opacity="1"><g transform="translate(188.239162, 21.048389)"><g><path d="M 3.6875 -1.9375 L 9.515625 -1.9375 L 9.515625 0 L 1.28125 0 L 1.28125 -12.4375 L 3.6875 -12.4375 Z M 3.6875 -1.9375 "/></g></g></g><g fill="#ffa114" fill-opacity="1"><g transform="translate(198.74012, 21.048389)"><g><path d="M 9.796875 -5.3125 C 9.796875 -4.507812 9.691406 -3.769531 9.484375 -3.09375 C 9.273438 -2.425781 8.96875 -1.847656 8.5625 -1.359375 C 8.164062 -0.878906 7.679688 -0.503906 7.109375 -0.234375 C 6.535156 0.0351562 5.890625 0.171875 5.171875 0.171875 C 4.460938 0.171875 3.828125 0.0351562 3.265625 -0.234375 C 2.703125 -0.503906 2.226562 -0.882812 1.84375 -1.375 C 1.46875 -1.863281 1.179688 -2.441406 0.984375 -3.109375 C 0.785156 -3.773438 0.6875 -4.507812 0.6875 -5.3125 L 0.6875 -7.125 C 0.6875 -7.914062 0.785156 -8.644531 0.984375 -9.3125 C 1.179688 -9.988281 1.46875 -10.570312 1.84375 -11.0625 C 2.226562 -11.550781 2.695312 -11.929688 3.25 -12.203125 C 3.8125 -12.472656 4.453125 -12.609375 5.171875 -12.609375 C 5.890625 -12.609375 6.535156 -12.472656 7.109375 -12.203125 C 7.679688 -11.929688 8.164062 -11.550781 8.5625 -11.0625 C 8.96875 -10.570312 9.273438 -9.988281 9.484375 -9.3125 C 9.691406 -8.644531 9.796875 -7.914062 9.796875 -7.125 Z M 7.359375 -7.140625 C 7.359375 -7.640625 7.316406 -8.101562 7.234375 -8.53125 C 7.160156 -8.957031 7.035156 -9.320312 6.859375 -9.625 C 6.679688 -9.9375 6.453125 -10.179688 6.171875 -10.359375 C 5.898438 -10.535156 5.566406 -10.625 5.171875 -10.625 C 4.785156 -10.625 4.457031 -10.535156 4.1875 -10.359375 C 3.925781 -10.179688 3.71875 -9.9375 3.5625 -9.625 C 3.40625 -9.320312 3.289062 -8.957031 3.21875 -8.53125 C 3.15625 -8.101562 3.125 -7.640625 3.125 -7.140625 L 3.125 -5.3125 C 3.125 -4.800781 3.15625 -4.332031 3.21875 -3.90625 C 3.289062 -3.476562 3.40625 -3.109375 3.5625 -2.796875 C 3.71875 -2.484375 3.925781 -2.238281 4.1875 -2.0625 C 4.457031 -1.882812 4.785156 -1.796875 5.171875 -1.796875 C 5.566406 -1.796875 5.898438 -1.882812 6.171875 -2.0625 C 6.453125 -2.238281 6.675781 -2.484375 6.84375 -2.796875 C 7.019531 -3.109375 7.148438 -3.476562 7.234375 -3.90625 C 7.316406 -4.332031 7.359375 -4.800781 7.359375 -5.3125 Z M 7.359375 -7.140625 "/></g></g></g><g fill="#ffa114" fill-opacity="1"><g transform="translate(209.241078, 21.048389)"><g><path d="M 5.34375 -4.65625 L 3.515625 -4.65625 L 3.515625 0 L 1.125 0 L 1.125 -12.4375 L 5.296875 -12.4375 C 5.984375 -12.4375 6.601562 -12.351562 7.15625 -12.1875 C 7.71875 -12.03125 8.195312 -11.796875 8.59375 -11.484375 C 8.988281 -11.171875 9.289062 -10.78125 9.5 -10.3125 C 9.71875 -9.84375 9.828125 -9.300781 9.828125 -8.6875 C 9.828125 -8.25 9.773438 -7.847656 9.671875 -7.484375 C 9.566406 -7.128906 9.414062 -6.8125 9.21875 -6.53125 C 9.019531 -6.25 8.78125 -6.003906 8.5 -5.796875 C 8.226562 -5.585938 7.921875 -5.40625 7.578125 -5.25 L 10.25 -0.109375 L 10.25 0 L 7.6875 0 Z M 3.515625 -6.59375 L 5.296875 -6.59375 C 5.972656 -6.59375 6.492188 -6.765625 6.859375 -7.109375 C 7.234375 -7.453125 7.421875 -7.925781 7.421875 -8.53125 C 7.421875 -9.144531 7.238281 -9.625 6.875 -9.96875 C 6.519531 -10.320312 5.992188 -10.5 5.296875 -10.5 L 3.515625 -10.5 Z M 3.515625 -6.59375 "/></g></g></g><g fill="#ffa114" fill-opacity="1"><g transform="translate(219.742037, 21.048389)"><g><path d="M 1.65625 -12.4375 L 8.84375 -12.4375 L 8.84375 -10.5 L 6.421875 -10.5 L 6.421875 -1.9375 L 8.84375 -1.9375 L 8.84375 0 L 1.65625 0 L 1.65625 -1.9375 L 4.015625 -1.9375 L 4.015625 -10.5 L 1.65625 -10.5 Z M 1.65625 -12.4375 "/></g></g></g><g fill="#ffa114" fill-opacity="1"><g transform="translate(230.242995, 21.048389)"><g><path d="M 9.328125 0 L 6.9375 0 L 3.46875 -8.03125 L 3.46875 0 L 1.046875 0 L 1.046875 -12.4375 L 3.46875 -12.4375 L 6.90625 -4.453125 L 6.90625 -12.4375 L 9.328125 -12.4375 Z M 9.328125 0 "/></g></g></g><g fill="#ffa114" fill-opacity="1"><g transform="translate(240.743953, 21.048389)"><g><path d="M 9.671875 -1.453125 C 9.515625 -1.265625 9.300781 -1.070312 9.03125 -0.875 C 8.769531 -0.6875 8.453125 -0.515625 8.078125 -0.359375 C 7.710938 -0.203125 7.300781 -0.078125 6.84375 0.015625 C 6.394531 0.117188 5.910156 0.171875 5.390625 0.171875 C 4.679688 0.171875 4.039062 0.046875 3.46875 -0.203125 C 2.894531 -0.453125 2.40625 -0.8125 2 -1.28125 C 1.601562 -1.757812 1.296875 -2.34375 1.078125 -3.03125 C 0.859375 -3.71875 0.75 -4.492188 0.75 -5.359375 L 0.75 -7.0625 C 0.75 -7.925781 0.863281 -8.703125 1.09375 -9.390625 C 1.320312 -10.078125 1.640625 -10.660156 2.046875 -11.140625 C 2.453125 -11.617188 2.929688 -11.984375 3.484375 -12.234375 C 4.035156 -12.484375 4.628906 -12.609375 5.265625 -12.609375 C 5.972656 -12.609375 6.585938 -12.519531 7.109375 -12.34375 C 7.628906 -12.164062 8.066406 -11.910156 8.421875 -11.578125 C 8.785156 -11.242188 9.066406 -10.835938 9.265625 -10.359375 C 9.472656 -9.878906 9.609375 -9.34375 9.671875 -8.75 L 7.328125 -8.75 C 7.242188 -9.382812 7.050781 -9.863281 6.75 -10.1875 C 6.445312 -10.507812 5.972656 -10.671875 5.328125 -10.671875 C 5.023438 -10.671875 4.738281 -10.59375 4.46875 -10.4375 C 4.207031 -10.28125 3.976562 -10.050781 3.78125 -9.75 C 3.59375 -9.445312 3.441406 -9.070312 3.328125 -8.625 C 3.210938 -8.175781 3.15625 -7.660156 3.15625 -7.078125 L 3.15625 -5.359375 C 3.164062 -4.203125 3.359375 -3.3125 3.734375 -2.6875 C 4.117188 -2.070312 4.707031 -1.765625 5.5 -1.765625 C 5.6875 -1.765625 5.867188 -1.773438 6.046875 -1.796875 C 6.234375 -1.828125 6.40625 -1.867188 6.5625 -1.921875 C 6.71875 -1.972656 6.859375 -2.03125 6.984375 -2.09375 C 7.109375 -2.164062 7.203125 -2.238281 7.265625 -2.3125 L 7.265625 -4.5625 L 5.21875 -4.5625 L 5.21875 -6.359375 L 9.671875 -6.359375 Z M 9.671875 -1.453125 "/></g></g></g><g fill="#ffa114" fill-opacity="1"><g transform="translate(251.244911, 21.048389)"><g/></g></g><g fill="#ffa114" fill-opacity="1"><g transform="translate(261.74587, 21.048389)"><g><path d="M 10.265625 -10.484375 L 6.421875 -10.484375 L 6.421875 0 L 4.015625 0 L 4.015625 -10.484375 L 0.234375 -10.484375 L 0.234375 -12.4375 L 10.265625 -12.4375 Z M 10.265625 -10.484375 "/></g></g></g><g fill="#ffa114" fill-opacity="1"><g transform="translate(272.246828, 21.048389)"><g><path d="M 9.328125 0 L 6.953125 0 L 6.953125 -5.390625 L 3.4375 -5.390625 L 3.4375 0 L 1.046875 0 L 1.046875 -12.4375 L 3.4375 -12.4375 L 3.4375 -7.34375 L 6.953125 -7.34375 L 6.953125 -12.4375 L 9.328125 -12.4375 Z M 9.328125 0 "/></g></g></g><g fill="#ffa114" fill-opacity="1"><g transform="translate(282.747786, 21.048389)"><g><path d="M 1.65625 -12.4375 L 8.84375 -12.4375 L 8.84375 -10.5 L 6.421875 -10.5 L 6.421875 -1.9375 L 8.84375 -1.9375 L 8.84375 0 L 1.65625 0 L 1.65625 -1.9375 L 4.015625 -1.9375 L 4.015625 -10.5 L 1.65625 -10.5 Z M 1.65625 -12.4375 "/></g></g></g><g fill="#ffa114" fill-opacity="1"><g transform="translate(293.248745, 21.048389)"><g><path d="M 7.578125 -3.25 C 7.578125 -3.46875 7.535156 -3.671875 7.453125 -3.859375 C 7.378906 -4.054688 7.25 -4.238281 7.0625 -4.40625 C 6.882812 -4.582031 6.644531 -4.738281 6.34375 -4.875 C 6.039062 -5.007812 5.671875 -5.140625 5.234375 -5.265625 C 4.691406 -5.410156 4.171875 -5.59375 3.671875 -5.8125 C 3.179688 -6.039062 2.75 -6.3125 2.375 -6.625 C 2 -6.9375 1.695312 -7.300781 1.46875 -7.71875 C 1.25 -8.132812 1.140625 -8.613281 1.140625 -9.15625 C 1.140625 -9.675781 1.25 -10.148438 1.46875 -10.578125 C 1.6875 -11.003906 1.992188 -11.367188 2.390625 -11.671875 C 2.785156 -11.972656 3.25 -12.203125 3.78125 -12.359375 C 4.320312 -12.523438 4.90625 -12.609375 5.53125 -12.609375 C 6.175781 -12.609375 6.769531 -12.515625 7.3125 -12.328125 C 7.851562 -12.140625 8.316406 -11.875 8.703125 -11.53125 C 9.085938 -11.195312 9.382812 -10.796875 9.59375 -10.328125 C 9.8125 -9.859375 9.921875 -9.347656 9.921875 -8.796875 L 7.59375 -8.796875 C 7.582031 -9.078125 7.53125 -9.332031 7.4375 -9.5625 C 7.351562 -9.789062 7.222656 -9.988281 7.046875 -10.15625 C 6.867188 -10.332031 6.648438 -10.46875 6.390625 -10.5625 C 6.128906 -10.65625 5.828125 -10.703125 5.484375 -10.703125 C 5.160156 -10.703125 4.875 -10.660156 4.625 -10.578125 C 4.382812 -10.503906 4.175781 -10.394531 4 -10.25 C 3.832031 -10.113281 3.703125 -9.945312 3.609375 -9.75 C 3.523438 -9.5625 3.484375 -9.359375 3.484375 -9.140625 C 3.484375 -8.910156 3.539062 -8.703125 3.65625 -8.515625 C 3.78125 -8.328125 3.953125 -8.15625 4.171875 -8 C 4.390625 -7.851562 4.65625 -7.71875 4.96875 -7.59375 C 5.289062 -7.46875 5.648438 -7.347656 6.046875 -7.234375 C 6.617188 -7.066406 7.144531 -6.863281 7.625 -6.625 C 8.101562 -6.382812 8.515625 -6.101562 8.859375 -5.78125 C 9.203125 -5.457031 9.46875 -5.082031 9.65625 -4.65625 C 9.851562 -4.238281 9.953125 -3.773438 9.953125 -3.265625 C 9.953125 -2.710938 9.835938 -2.222656 9.609375 -1.796875 C 9.390625 -1.378906 9.085938 -1.023438 8.703125 -0.734375 C 8.316406 -0.441406 7.851562 -0.21875 7.3125 -0.0625 C 6.78125 0.0820312 6.203125 0.15625 5.578125 0.15625 C 5.179688 0.15625 4.785156 0.117188 4.390625 0.046875 C 4.003906 -0.015625 3.632812 -0.117188 3.28125 -0.265625 C 2.925781 -0.421875 2.59375 -0.609375 2.28125 -0.828125 C 1.96875 -1.046875 1.695312 -1.300781 1.46875 -1.59375 C 1.25 -1.894531 1.078125 -2.234375 0.953125 -2.609375 C 0.828125 -2.984375 0.765625 -3.398438 0.765625 -3.859375 L 3.125 -3.859375 C 3.132812 -3.484375 3.195312 -3.160156 3.3125 -2.890625 C 3.4375 -2.628906 3.601562 -2.410156 3.8125 -2.234375 C 4.03125 -2.066406 4.285156 -1.941406 4.578125 -1.859375 C 4.878906 -1.785156 5.210938 -1.75 5.578125 -1.75 C 5.890625 -1.75 6.171875 -1.785156 6.421875 -1.859375 C 6.671875 -1.929688 6.878906 -2.03125 7.046875 -2.15625 C 7.222656 -2.289062 7.351562 -2.445312 7.4375 -2.625 C 7.53125 -2.8125 7.578125 -3.019531 7.578125 -3.25 Z M 7.578125 -3.25 "/></g></g></g><g fill="#ffa114" fill-opacity="1"><g transform="translate(303.749703, 21.048389)"><g/></g></g><g fill="#ffa114" fill-opacity="1"><g transform="translate(314.250661, 21.048389)"><g><path d="M 1.65625 -12.4375 L 8.84375 -12.4375 L 8.84375 -10.5 L 6.421875 -10.5 L 6.421875 -1.9375 L 8.84375 -1.9375 L 8.84375 0 L 1.65625 0 L 1.65625 -1.9375 L 4.015625 -1.9375 L 4.015625 -10.5 L 1.65625 -10.5 Z M 1.65625 -12.4375 "/></g></g></g><g fill="#ffa114" fill-opacity="1"><g transform="translate(324.75162, 21.048389)"><g><path d="M 1.0625 0 L 1.0625 -12.4375 L 4.296875 -12.4375 C 5.117188 -12.4375 5.863281 -12.296875 6.53125 -12.015625 C 7.195312 -11.734375 7.769531 -11.335938 8.25 -10.828125 C 8.726562 -10.328125 9.09375 -9.726562 9.34375 -9.03125 C 9.601562 -8.332031 9.734375 -7.5625 9.734375 -6.71875 L 9.734375 -5.703125 C 9.734375 -4.859375 9.601562 -4.085938 9.34375 -3.390625 C 9.09375 -2.691406 8.734375 -2.09375 8.265625 -1.59375 C 7.796875 -1.09375 7.234375 -0.703125 6.578125 -0.421875 C 5.921875 -0.140625 5.195312 0 4.40625 0 Z M 3.484375 -10.5 L 3.484375 -1.9375 L 4.40625 -1.9375 C 4.851562 -1.9375 5.253906 -2.019531 5.609375 -2.1875 C 5.972656 -2.351562 6.273438 -2.597656 6.515625 -2.921875 C 6.765625 -3.253906 6.953125 -3.648438 7.078125 -4.109375 C 7.210938 -4.578125 7.28125 -5.109375 7.28125 -5.703125 L 7.28125 -6.734375 C 7.28125 -7.296875 7.21875 -7.804688 7.09375 -8.265625 C 6.96875 -8.722656 6.773438 -9.117188 6.515625 -9.453125 C 6.265625 -9.785156 5.953125 -10.039062 5.578125 -10.21875 C 5.210938 -10.40625 4.785156 -10.5 4.296875 -10.5 Z M 3.484375 -10.5 "/></g></g></g><g fill="#ffa114" fill-opacity="1"><g transform="translate(335.252578, 21.048389)"><g><path d="M 8.78125 -5.453125 L 3.671875 -5.453125 L 3.671875 -1.9375 L 9.640625 -1.9375 L 9.640625 0 L 1.25 0 L 1.25 -12.4375 L 9.609375 -12.4375 L 9.609375 -10.484375 L 3.671875 -10.484375 L 3.671875 -7.34375 L 8.78125 -7.34375 Z M 8.78125 -5.453125 "/></g></g></g><g fill="#ffa114" fill-opacity="1"><g transform="translate(345.753536, 21.048389)"><g><path d="M 7.234375 -2.59375 L 3.5 -2.59375 L 2.765625 0 L 0.234375 0 L 4.3125 -12.4375 L 6.5 -12.4375 L 10.5 0 L 7.96875 0 Z M 4.09375 -4.640625 L 6.671875 -4.640625 L 5.40625 -9.21875 Z M 4.09375 -4.640625 "/></g></g></g><g fill="#ffa114" fill-opacity="1"><g transform="translate(356.25755, 21.048389)"><g/></g></g></svg>