<svg xmlns="http://www.w3.org/2000/svg" xmlns:xlink="http://www.w3.org/1999/xlink" width="500" zoomAndPan="magnify" viewBox="0 0 375 225" height="300" preserveAspectRatio="xMidYMid meet" version="1.0"><defs><g/><clipPath id="88e1c08b2e"><rect x="0" width="85" y="0" height="179"/></clipPath></defs><g transform="matrix(1, 0, 0, 1, 36, 8)"><g clip-path="url(#88e1c08b2e)"><g fill="#8f1eae" fill-opacity="1"><g transform="translate(2.806293, 139.721773)"><g><path d="M 1.625 -103.75 L 40.171875 -103.75 L 40.171875 -37.5 L 78.109375 -37.5 L 78.109375 0 L 1.625 0 Z M 1.625 -103.75 "/></g></g></g></g></g><g fill="#ffffff" fill-opacity="1"><g transform="translate(90.175813, 124.432987)"><g><path d="M 33.539062 7.257812 C 28.320312 7.257812 23.386719 6.269531 18.738281 4.289062 C 14.125 2.324219 10.066406 -0.410156 6.558594 -3.917969 C 3.050781 -7.425781 0.316406 -11.488281 -1.648438 -16.097656 C -3.628906 -20.746094 -4.617188 -25.679688 -4.617188 -30.898438 C -4.617188 -36.199219 -3.625 -41.15625 -1.644531 -45.773438 C 0.320312 -50.339844 3.054688 -54.378906 6.558594 -57.882812 C 10.066406 -61.390625 14.125 -64.125 18.738281 -66.089844 C 23.386719 -68.070312 28.320312 -69.058594 33.539062 -69.058594 C 38.839844 -69.058594 43.796875 -68.066406 48.410156 -66.082031 C 52.980469 -64.117188 57.015625 -61.382812 60.519531 -57.882812 C 64.023438 -54.378906 66.757812 -50.339844 68.722656 -45.773438 C 70.707031 -41.15625 71.699219 -36.199219 71.699219 -30.898438 C 71.699219 -25.679688 70.707031 -20.746094 68.730469 -16.097656 C 66.765625 -11.488281 64.027344 -7.425781 60.519531 -3.917969 C 57.015625 -0.417969 52.980469 2.316406 48.410156 4.28125 C 43.796875 6.265625 38.839844 7.257812 33.539062 7.257812 Z M 33.539062 -3.738281 C 37.328125 -3.738281 40.839844 -4.433594 44.070312 -5.820312 C 47.34375 -7.230469 50.234375 -9.1875 52.742188 -11.695312 C 55.246094 -14.199219 57.203125 -17.105469 58.609375 -20.410156 C 60.003906 -23.679688 60.699219 -27.175781 60.699219 -30.898438 C 60.699219 -34.691406 60.007812 -38.199219 58.617188 -41.429688 C 57.210938 -44.703125 55.25 -47.597656 52.742188 -50.105469 C 50.234375 -52.613281 47.34375 -54.570312 44.070312 -55.980469 C 40.839844 -57.367188 37.328125 -58.0625 33.539062 -58.0625 C 29.816406 -58.0625 26.320312 -57.363281 23.046875 -55.972656 C 19.742188 -54.5625 16.839844 -52.609375 14.335938 -50.105469 C 11.828125 -47.597656 9.867188 -44.703125 8.460938 -41.429688 C 7.074219 -38.199219 6.378906 -34.691406 6.378906 -30.898438 C 6.378906 -27.175781 7.074219 -23.679688 8.46875 -20.410156 C 9.875 -17.105469 11.832031 -14.199219 14.335938 -11.695312 C 16.839844 -9.191406 19.742188 -7.238281 23.046875 -5.828125 C 26.320312 -4.4375 29.816406 -3.738281 33.539062 -3.738281 Z M 33.539062 -31.011719 C 33.519531 -31.011719 33.496094 -30.996094 33.46875 -30.972656 C 33.441406 -30.945312 33.429688 -30.921875 33.429688 -30.898438 C 33.429688 -30.878906 33.441406 -30.855469 33.46875 -30.828125 C 33.496094 -30.804688 33.519531 -30.789062 33.539062 -30.789062 C 33.558594 -30.789062 33.585938 -30.804688 33.609375 -30.828125 C 33.636719 -30.855469 33.648438 -30.878906 33.648438 -30.898438 C 33.648438 -30.921875 33.636719 -30.945312 33.609375 -30.972656 C 33.585938 -30.996094 33.558594 -31.011719 33.539062 -31.011719 Z M 33.539062 -42.007812 C 36.597656 -42.007812 39.210938 -40.921875 41.386719 -38.746094 C 43.558594 -36.574219 44.644531 -33.957031 44.644531 -30.898438 C 44.644531 -27.84375 43.558594 -25.226562 41.386719 -23.054688 C 39.210938 -20.878906 36.597656 -19.792969 33.539062 -19.792969 C 30.480469 -19.792969 27.867188 -20.878906 25.691406 -23.054688 C 23.519531 -25.226562 22.433594 -27.84375 22.433594 -30.898438 C 22.433594 -33.957031 23.519531 -36.574219 25.691406 -38.746094 C 27.867188 -40.921875 30.480469 -42.007812 33.539062 -42.007812 Z M 33.539062 -42.007812 "/></g></g></g><g fill="#8f1eae" fill-opacity="1"><g transform="translate(90.175813, 124.432987)"><g><path d="M 33.546875 1.765625 C 29.066406 1.765625 24.847656 0.921875 20.890625 -0.765625 C 16.929688 -2.453125 13.445312 -4.796875 10.4375 -7.796875 C 7.4375 -10.804688 5.09375 -14.289062 3.40625 -18.25 C 1.71875 -22.207031 0.875 -26.425781 0.875 -30.90625 C 0.875 -35.445312 1.71875 -39.675781 3.40625 -43.59375 C 5.09375 -47.519531 7.4375 -50.984375 10.4375 -53.984375 C 13.445312 -56.992188 16.929688 -59.34375 20.890625 -61.03125 C 24.847656 -62.71875 29.066406 -63.5625 33.546875 -63.5625 C 38.085938 -63.5625 42.316406 -62.71875 46.234375 -61.03125 C 50.160156 -59.34375 53.625 -56.992188 56.625 -53.984375 C 59.632812 -50.984375 61.984375 -47.519531 63.671875 -43.59375 C 65.359375 -39.675781 66.203125 -35.445312 66.203125 -30.90625 C 66.203125 -26.425781 65.359375 -22.207031 63.671875 -18.25 C 61.984375 -14.289062 59.632812 -10.804688 56.625 -7.796875 C 53.625 -4.796875 50.160156 -2.453125 46.234375 -0.765625 C 42.316406 0.921875 38.085938 1.765625 33.546875 1.765625 Z M 33.546875 -36.515625 C 32.003906 -36.515625 30.679688 -35.960938 29.578125 -34.859375 C 28.484375 -33.753906 27.9375 -32.4375 27.9375 -30.90625 C 27.9375 -29.363281 28.484375 -28.039062 29.578125 -26.9375 C 30.679688 -25.84375 32.003906 -25.296875 33.546875 -25.296875 C 35.078125 -25.296875 36.394531 -25.84375 37.5 -26.9375 C 38.601562 -28.039062 39.15625 -29.363281 39.15625 -30.90625 C 39.15625 -32.4375 38.601562 -33.753906 37.5 -34.859375 C 36.394531 -35.960938 35.078125 -36.515625 33.546875 -36.515625 Z M 33.546875 -36.515625 "/></g></g></g><g fill="#ffffff" fill-opacity="1"><g transform="translate(131.256197, 157.752399)"><g><path d="M 33.6875 7.289062 C 28.445312 7.289062 23.488281 6.296875 18.820312 4.308594 C 14.1875 2.335938 10.109375 -0.414062 6.589844 -3.9375 C 3.066406 -7.460938 0.316406 -11.539062 -1.65625 -16.171875 C -3.644531 -20.839844 -4.640625 -25.792969 -4.640625 -31.039062 C -4.640625 -36.359375 -3.640625 -41.339844 -1.648438 -45.976562 C 0.324219 -50.566406 3.070312 -54.617188 6.589844 -58.136719 C 10.109375 -61.660156 14.1875 -64.410156 18.820312 -66.382812 C 23.488281 -68.371094 28.445312 -69.363281 33.6875 -69.363281 C 39.011719 -69.363281 43.992188 -68.367188 48.625 -66.375 C 53.214844 -64.402344 57.269531 -61.65625 60.789062 -58.136719 C 64.308594 -54.617188 67.054688 -50.566406 69.027344 -45.976562 C 71.019531 -41.339844 72.015625 -36.359375 72.015625 -31.039062 C 72.015625 -25.792969 71.019531 -20.839844 69.03125 -16.171875 C 67.058594 -11.539062 64.3125 -7.460938 60.789062 -3.9375 C 57.269531 -0.417969 53.214844 2.328125 48.625 4.300781 C 43.992188 6.292969 39.011719 7.289062 33.6875 7.289062 Z M 33.6875 -3.753906 C 37.496094 -3.753906 41.019531 -4.453125 44.265625 -5.847656 C 47.554688 -7.261719 50.457031 -9.226562 52.976562 -11.746094 C 55.492188 -14.261719 57.457031 -17.179688 58.871094 -20.5 C 60.269531 -23.785156 60.96875 -27.296875 60.96875 -31.039062 C 60.96875 -34.84375 60.273438 -38.371094 58.878906 -41.613281 C 57.464844 -44.902344 55.496094 -47.808594 52.976562 -50.328125 C 50.457031 -52.847656 47.554688 -54.8125 44.265625 -56.226562 C 41.019531 -57.621094 37.496094 -58.320312 33.6875 -58.320312 C 29.949219 -58.320312 26.433594 -57.621094 23.148438 -56.21875 C 19.828125 -54.804688 16.914062 -52.839844 14.398438 -50.328125 C 11.878906 -47.808594 9.910156 -44.902344 8.496094 -41.613281 C 7.101562 -38.371094 6.40625 -34.84375 6.40625 -31.039062 C 6.40625 -27.296875 7.105469 -23.785156 8.503906 -20.5 C 9.917969 -17.179688 11.882812 -14.261719 14.398438 -11.746094 C 16.914062 -9.234375 19.828125 -7.269531 23.148438 -5.855469 C 26.433594 -4.453125 29.949219 -3.753906 33.6875 -3.753906 Z M 33.6875 -31.148438 C 33.667969 -31.148438 33.644531 -31.132812 33.617188 -31.109375 C 33.589844 -31.082031 33.578125 -31.058594 33.578125 -31.039062 C 33.578125 -31.015625 33.589844 -30.992188 33.617188 -30.964844 C 33.644531 -30.941406 33.667969 -30.925781 33.6875 -30.925781 C 33.710938 -30.925781 33.734375 -30.941406 33.757812 -30.964844 C 33.785156 -30.992188 33.796875 -31.015625 33.796875 -31.039062 C 33.796875 -31.058594 33.785156 -31.082031 33.757812 -31.109375 C 33.734375 -31.132812 33.710938 -31.148438 33.6875 -31.148438 Z M 33.6875 -42.191406 C 36.757812 -42.191406 39.386719 -41.101562 41.570312 -38.917969 C 43.753906 -36.734375 44.84375 -34.109375 44.84375 -31.039062 C 44.84375 -27.964844 43.753906 -25.339844 41.570312 -23.15625 C 39.386719 -20.972656 36.757812 -19.882812 33.6875 -19.882812 C 30.617188 -19.882812 27.988281 -20.972656 25.804688 -23.15625 C 23.625 -25.339844 22.53125 -27.964844 22.53125 -31.039062 C 22.53125 -34.109375 23.625 -36.734375 25.804688 -38.917969 C 27.988281 -41.101562 30.617188 -42.191406 33.6875 -42.191406 Z M 33.6875 -42.191406 "/></g></g></g><g fill="#8f1eae" fill-opacity="1"><g transform="translate(131.256197, 157.752399)"><g><path d="M 33.6875 1.765625 C 29.195312 1.765625 24.960938 0.921875 20.984375 -0.765625 C 17.003906 -2.460938 13.503906 -4.820312 10.484375 -7.84375 C 7.472656 -10.863281 5.117188 -14.359375 3.421875 -18.328125 C 1.734375 -22.304688 0.890625 -26.539062 0.890625 -31.03125 C 0.890625 -35.601562 1.734375 -39.859375 3.421875 -43.796875 C 5.117188 -47.734375 7.472656 -51.210938 10.484375 -54.234375 C 13.503906 -57.253906 17.003906 -59.609375 20.984375 -61.296875 C 24.960938 -62.992188 29.195312 -63.84375 33.6875 -63.84375 C 38.25 -63.84375 42.5 -62.992188 46.4375 -61.296875 C 50.382812 -59.609375 53.863281 -57.253906 56.875 -54.234375 C 59.894531 -51.210938 62.253906 -47.734375 63.953125 -43.796875 C 65.648438 -39.859375 66.5 -35.601562 66.5 -31.03125 C 66.5 -26.539062 65.648438 -22.304688 63.953125 -18.328125 C 62.253906 -14.359375 59.894531 -10.863281 56.875 -7.84375 C 53.863281 -4.820312 50.382812 -2.460938 46.4375 -0.765625 C 42.5 0.921875 38.25 1.765625 33.6875 1.765625 Z M 33.6875 -36.671875 C 32.144531 -36.671875 30.820312 -36.117188 29.71875 -35.015625 C 28.613281 -33.910156 28.0625 -32.582031 28.0625 -31.03125 C 28.0625 -29.488281 28.613281 -28.164062 29.71875 -27.0625 C 30.820312 -25.957031 32.144531 -25.40625 33.6875 -25.40625 C 35.226562 -25.40625 36.550781 -25.957031 37.65625 -27.0625 C 38.769531 -28.164062 39.328125 -29.488281 39.328125 -31.03125 C 39.328125 -32.582031 38.769531 -33.910156 37.65625 -35.015625 C 36.550781 -36.117188 35.226562 -36.671875 33.6875 -36.671875 Z M 33.6875 -36.671875 "/></g></g></g><g fill="#8f1eae" fill-opacity="1"><g transform="translate(186.550467, 149.828922)"><g><path d="M 52.15625 -18.578125 C 52.875 -18.578125 53.441406 -18.242188 53.859375 -17.578125 C 54.273438 -16.910156 54.484375 -15.992188 54.484375 -14.828125 C 54.484375 -12.609375 53.957031 -10.890625 52.90625 -9.671875 C 50.40625 -6.609375 47.875 -4.160156 45.3125 -2.328125 C 42.757812 -0.492188 39.734375 0.421875 36.234375 0.421875 C 31.960938 0.421875 28.519531 -0.800781 25.90625 -3.25 C 23.300781 -5.695312 22 -8.945312 22 -13 C 22 -15.164062 23.109375 -16.71875 25.328125 -17.65625 C 27.773438 -18.71875 29.523438 -19.84375 30.578125 -21.03125 C 31.628906 -22.226562 32.15625 -23.6875 32.15625 -25.40625 C 32.15625 -26.40625 31.945312 -27.15625 31.53125 -27.65625 C 31.113281 -28.15625 30.601562 -28.40625 30 -28.40625 C 28.5 -28.40625 26.84375 -27.320312 25.03125 -25.15625 C 23.226562 -22.988281 21.546875 -20.195312 19.984375 -16.78125 C 18.429688 -13.363281 17.210938 -9.851562 16.328125 -6.25 C 15.710938 -3.632812 15.003906 -1.867188 14.203125 -0.953125 C 13.398438 -0.0351562 12.140625 0.421875 10.421875 0.421875 C 8.691406 0.421875 7.425781 -0.203125 6.625 -1.453125 C 5.820312 -2.703125 5.28125 -4.628906 5 -7.234375 C 4.71875 -9.847656 4.578125 -13.6875 4.578125 -18.75 C 4.578125 -27.300781 5.453125 -36.210938 7.203125 -45.484375 C 8.953125 -54.765625 11.535156 -62.554688 14.953125 -68.859375 C 18.367188 -75.160156 22.46875 -78.3125 27.25 -78.3125 C 29.800781 -78.3125 31.867188 -77.210938 33.453125 -75.015625 C 35.035156 -72.828125 35.828125 -69.984375 35.828125 -66.484375 C 35.828125 -60.867188 34.1875 -55.046875 30.90625 -49.015625 C 27.632812 -42.992188 22.300781 -35.957031 14.90625 -27.90625 C 14.738281 -25.019531 14.65625 -22.050781 14.65625 -19 C 17.320312 -25.9375 20.378906 -30.972656 23.828125 -34.109375 C 27.273438 -37.253906 30.492188 -38.828125 33.484375 -38.828125 C 36.265625 -38.828125 38.5 -37.878906 40.1875 -35.984375 C 41.882812 -34.097656 42.734375 -31.769531 42.734375 -29 C 42.734375 -25.9375 41.957031 -23.128906 40.40625 -20.578125 C 38.851562 -18.023438 36.1875 -15.75 32.40625 -13.75 C 32.625 -12.25 33.300781 -11.039062 34.4375 -10.125 C 35.582031 -9.207031 36.960938 -8.75 38.578125 -8.75 C 40.296875 -8.75 41.957031 -9.414062 43.5625 -10.75 C 45.175781 -12.082031 47.289062 -14.300781 49.90625 -17.40625 C 50.570312 -18.1875 51.320312 -18.578125 52.15625 -18.578125 Z M 25.5 -70.0625 C 24.5 -70.0625 23.382812 -68.628906 22.15625 -65.765625 C 20.9375 -62.910156 19.753906 -59.050781 18.609375 -54.1875 C 17.472656 -49.332031 16.546875 -44.046875 15.828125 -38.328125 C 19.273438 -42.378906 22.125 -46.789062 24.375 -51.5625 C 26.625 -56.34375 27.75 -60.675781 27.75 -64.5625 C 27.75 -66.34375 27.550781 -67.703125 27.15625 -68.640625 C 26.769531 -69.585938 26.21875 -70.0625 25.5 -70.0625 Z M 25.5 -70.0625 "/></g></g></g><g fill="#8f1eae" fill-opacity="1"><g transform="translate(230.287438, 149.828922)"><g><path d="M 35.578125 -18.578125 C 36.296875 -18.578125 36.863281 -18.242188 37.28125 -17.578125 C 37.695312 -16.910156 37.90625 -15.992188 37.90625 -14.828125 C 37.90625 -12.609375 37.378906 -10.890625 36.328125 -9.671875 C 33.929688 -6.722656 31.332031 -4.300781 28.53125 -2.40625 C 25.726562 -0.519531 22.550781 0.421875 19 0.421875 C 14.101562 0.421875 10.472656 -1.796875 8.109375 -6.234375 C 5.753906 -10.679688 4.578125 -16.4375 4.578125 -23.5 C 4.578125 -30.269531 5.453125 -37.988281 7.203125 -46.65625 C 8.953125 -55.320312 11.535156 -62.765625 14.953125 -68.984375 C 18.367188 -75.203125 22.4375 -78.3125 27.15625 -78.3125 C 29.820312 -78.3125 31.914062 -77.078125 33.4375 -74.609375 C 34.96875 -72.140625 35.734375 -68.597656 35.734375 -63.984375 C 35.734375 -57.367188 33.898438 -49.703125 30.234375 -40.984375 C 26.578125 -32.265625 21.609375 -23.628906 15.328125 -15.078125 C 15.710938 -12.796875 16.347656 -11.171875 17.234375 -10.203125 C 18.128906 -9.234375 19.300781 -8.75 20.75 -8.75 C 23.019531 -8.75 25.015625 -9.398438 26.734375 -10.703125 C 28.460938 -12.003906 30.660156 -14.238281 33.328125 -17.40625 C 33.992188 -18.1875 34.742188 -18.578125 35.578125 -18.578125 Z M 25.328125 -70.0625 C 24.046875 -70.0625 22.597656 -67.753906 20.984375 -63.140625 C 19.378906 -58.535156 17.960938 -52.816406 16.734375 -45.984375 C 15.515625 -39.148438 14.851562 -32.597656 14.75 -26.328125 C 18.6875 -32.828125 21.820312 -39.335938 24.15625 -45.859375 C 26.488281 -52.390625 27.65625 -58.347656 27.65625 -63.734375 C 27.65625 -67.953125 26.878906 -70.0625 25.328125 -70.0625 Z M 25.328125 -70.0625 "/></g></g></g><g fill="#8f1eae" fill-opacity="1"><g transform="translate(257.446018, 149.828922)"><g><path d="M 46.65625 -18.40625 C 47.375 -18.40625 47.941406 -18.054688 48.359375 -17.359375 C 48.773438 -16.671875 48.984375 -15.800781 48.984375 -14.75 C 48.984375 -13.46875 48.789062 -12.460938 48.40625 -11.734375 C 48.019531 -11.015625 47.410156 -10.378906 46.578125 -9.828125 L 30.578125 0.921875 C 28.460938 12.410156 25.695312 21.445312 22.28125 28.03125 C 18.863281 34.613281 14.519531 37.90625 9.25 37.90625 C 6.414062 37.90625 4.109375 37.03125 2.328125 35.28125 C 0.554688 33.53125 -0.328125 31.238281 -0.328125 28.40625 C -0.328125 25.800781 0.265625 23.132812 1.453125 20.40625 C 2.648438 17.6875 4.875 14.5625 8.125 11.03125 C 11.375 7.507812 15.96875 3.472656 21.90625 -1.078125 L 22.15625 -3 C 22.550781 -5.050781 23 -7.992188 23.5 -11.828125 C 22.382812 -7.828125 20.828125 -4.785156 18.828125 -2.703125 C 16.828125 -0.617188 14.71875 0.421875 12.5 0.421875 C 10 0.421875 7.957031 -0.726562 6.375 -3.03125 C 4.789062 -5.34375 4 -8.21875 4 -11.65625 C 4 -15.820312 4.273438 -19.640625 4.828125 -23.109375 C 5.390625 -26.585938 6.304688 -30.269531 7.578125 -34.15625 C 8.140625 -35.820312 8.914062 -37.015625 9.90625 -37.734375 C 10.90625 -38.460938 12.488281 -38.828125 14.65625 -38.828125 C 15.882812 -38.828125 16.734375 -38.628906 17.203125 -38.234375 C 17.671875 -37.847656 17.90625 -37.265625 17.90625 -36.484375 C 17.90625 -36.046875 17.601562 -34.546875 17 -31.984375 C 16.4375 -29.929688 15.988281 -28.070312 15.65625 -26.40625 C 15.21875 -24.132812 14.832031 -21.957031 14.5 -19.875 C 14.164062 -17.789062 14 -16.082031 14 -14.75 C 14 -12.632812 14.582031 -11.578125 15.75 -11.578125 C 16.582031 -11.578125 17.625 -12.410156 18.875 -14.078125 C 20.125 -15.742188 21.457031 -18.269531 22.875 -21.65625 C 24.289062 -25.050781 25.664062 -29.21875 27 -34.15625 C 27.4375 -35.820312 28.113281 -37.015625 29.03125 -37.734375 C 29.945312 -38.460938 31.320312 -38.828125 33.15625 -38.828125 C 34.4375 -38.828125 35.328125 -38.660156 35.828125 -38.328125 C 36.328125 -37.992188 36.578125 -37.4375 36.578125 -36.65625 C 36.578125 -35.269531 35.851562 -30.492188 34.40625 -22.328125 L 32.234375 -8.921875 C 36.515625 -12.140625 40.679688 -15.082031 44.734375 -17.75 C 45.460938 -18.1875 46.101562 -18.40625 46.65625 -18.40625 Z M 10.171875 29.828125 C 11.554688 29.828125 13.109375 28.210938 14.828125 24.984375 C 16.546875 21.765625 18.269531 16.410156 20 8.921875 C 15.71875 12.523438 12.617188 15.8125 10.703125 18.78125 C 8.785156 21.757812 7.828125 24.359375 7.828125 26.578125 C 7.828125 27.523438 8.007812 28.300781 8.375 28.90625 C 8.738281 29.519531 9.335938 29.828125 10.171875 29.828125 Z M 10.171875 29.828125 "/></g></g></g><g fill="#8f1eae" fill-opacity="1"><g transform="translate(296.434309, 149.828922)"><g><path d="M 46.65625 -18.40625 C 47.375 -18.40625 47.941406 -18.054688 48.359375 -17.359375 C 48.773438 -16.671875 48.984375 -15.800781 48.984375 -14.75 C 48.984375 -13.46875 48.789062 -12.460938 48.40625 -11.734375 C 48.019531 -11.015625 47.410156 -10.378906 46.578125 -9.828125 L 30.578125 0.921875 C 28.460938 12.410156 25.695312 21.445312 22.28125 28.03125 C 18.863281 34.613281 14.519531 37.90625 9.25 37.90625 C 6.414062 37.90625 4.109375 37.03125 2.328125 35.28125 C 0.554688 33.53125 -0.328125 31.238281 -0.328125 28.40625 C -0.328125 25.800781 0.265625 23.132812 1.453125 20.40625 C 2.648438 17.6875 4.875 14.5625 8.125 11.03125 C 11.375 7.507812 15.96875 3.472656 21.90625 -1.078125 L 22.15625 -3 C 22.550781 -5.050781 23 -7.992188 23.5 -11.828125 C 22.382812 -7.828125 20.828125 -4.785156 18.828125 -2.703125 C 16.828125 -0.617188 14.71875 0.421875 12.5 0.421875 C 10 0.421875 7.957031 -0.726562 6.375 -3.03125 C 4.789062 -5.34375 4 -8.21875 4 -11.65625 C 4 -15.820312 4.273438 -19.640625 4.828125 -23.109375 C 5.390625 -26.585938 6.304688 -30.269531 7.578125 -34.15625 C 8.140625 -35.820312 8.914062 -37.015625 9.90625 -37.734375 C 10.90625 -38.460938 12.488281 -38.828125 14.65625 -38.828125 C 15.882812 -38.828125 16.734375 -38.628906 17.203125 -38.234375 C 17.671875 -37.847656 17.90625 -37.265625 17.90625 -36.484375 C 17.90625 -36.046875 17.601562 -34.546875 17 -31.984375 C 16.4375 -29.929688 15.988281 -28.070312 15.65625 -26.40625 C 15.21875 -24.132812 14.832031 -21.957031 14.5 -19.875 C 14.164062 -17.789062 14 -16.082031 14 -14.75 C 14 -12.632812 14.582031 -11.578125 15.75 -11.578125 C 16.582031 -11.578125 17.625 -12.410156 18.875 -14.078125 C 20.125 -15.742188 21.457031 -18.269531 22.875 -21.65625 C 24.289062 -25.050781 25.664062 -29.21875 27 -34.15625 C 27.4375 -35.820312 28.113281 -37.015625 29.03125 -37.734375 C 29.945312 -38.460938 31.320312 -38.828125 33.15625 -38.828125 C 34.4375 -38.828125 35.328125 -38.660156 35.828125 -38.328125 C 36.328125 -37.992188 36.578125 -37.4375 36.578125 -36.65625 C 36.578125 -35.269531 35.851562 -30.492188 34.40625 -22.328125 L 32.234375 -8.921875 C 36.515625 -12.140625 40.679688 -15.082031 44.734375 -17.75 C 45.460938 -18.1875 46.101562 -18.40625 46.65625 -18.40625 Z M 10.171875 29.828125 C 11.554688 29.828125 13.109375 28.210938 14.828125 24.984375 C 16.546875 21.765625 18.269531 16.410156 20 8.921875 C 15.71875 12.523438 12.617188 15.8125 10.703125 18.78125 C 8.785156 21.757812 7.828125 24.359375 7.828125 26.578125 C 7.828125 27.523438 8.007812 28.300781 8.375 28.90625 C 8.738281 29.519531 9.335938 29.828125 10.171875 29.828125 Z M 10.171875 29.828125 "/></g></g></g></svg>