<svg xmlns="http://www.w3.org/2000/svg" xmlns:xlink="http://www.w3.org/1999/xlink" width="300" zoomAndPan="magnify" viewBox="0 0 224.87999 179.999997" height="240" preserveAspectRatio="xMidYMid meet" version="1.0"><defs><g/><clipPath id="9bf23e0c18"><path d="M 13 0.046875 L 212.027344 0.046875 L 212.027344 123 L 13 123 Z M 13 0.046875 " clip-rule="nonzero"/></clipPath><clipPath id="b44348f4cc"><path d="M 95 166 L 108 166 L 108 179.949219 L 95 179.949219 Z M 95 166 " clip-rule="nonzero"/></clipPath><clipPath id="40241a7992"><path d="M 94 166 L 109 166 L 109 179.949219 L 94 179.949219 Z M 94 166 " clip-rule="nonzero"/></clipPath><clipPath id="2842cc1472"><path d="M 0.386719 8 L 21 8 L 21 27 L 0.386719 27 Z M 0.386719 8 " clip-rule="nonzero"/></clipPath><clipPath id="4e51cceb41"><path d="M 19 9 L 31.570312 9 L 31.570312 24 L 19 24 Z M 19 9 " clip-rule="nonzero"/></clipPath><clipPath id="99e4db5cdc"><rect x="0" width="32" y="0" height="31"/></clipPath><clipPath id="6c1f930916"><path d="M 0.242188 8 L 21 8 L 21 27 L 0.242188 27 Z M 0.242188 8 " clip-rule="nonzero"/></clipPath><clipPath id="94feef2350"><path d="M 70 13 L 83.71875 13 L 83.71875 25 L 70 25 Z M 70 13 " clip-rule="nonzero"/></clipPath><clipPath id="6a1c507fe8"><rect x="0" width="84" y="0" height="32"/></clipPath><clipPath id="696b69e4e9"><path d="M 0.433594 4 L 15 4 L 15 25 L 0.433594 25 Z M 0.433594 4 " clip-rule="nonzero"/></clipPath><clipPath id="1b3c416d71"><rect x="0" width="58" y="0" height="31"/></clipPath></defs><path fill="#cb6417" d="M 204.507812 51.539062 C 203.511719 50.222656 198.796875 47.472656 197.632812 46.425781 C 197.199219 40.5625 199.636719 37.1875 196.21875 29.453125 C 193.464844 23.210938 187.265625 18.773438 180.648438 16.550781 C 178.777344 15.921875 176.875 15.652344 174.996094 15.683594 C 168.175781 7.003906 157.34375 3.667969 146.519531 2.523438 C 142.746094 2.125 138.792969 2.796875 135.375 4.46875 C 132.972656 5.640625 129.945312 9.914062 127.292969 9.921875 C 125.414062 9.929688 122.027344 7.5625 120.265625 6.789062 C 118.308594 5.933594 116.445312 4.847656 114.4375 4.113281 C 109.722656 2.390625 104.816406 1.179688 99.777344 1.058594 C 88.71875 0.78125 78.300781 6.160156 73.46875 16.316406 C 63.140625 15.804688 55.046875 20.921875 51.023438 30.980469 C 50.945312 31.179688 50.882812 31.386719 50.808594 31.585938 C 43.453125 31.828125 36.207031 33.746094 29.527344 36.757812 C 17.613281 42.136719 12.6875 54.71875 15.269531 66.855469 C 17.550781 77.570312 26.230469 84.390625 36.222656 86.925781 C 35.894531 96.5 38.789062 105.660156 47.585938 112.5 C 52.917969 116.640625 58.394531 119.214844 65.289062 119.402344 C 70.445312 119.546875 74.910156 117.515625 78.929688 114.710938 C 82.898438 117.636719 87.402344 119.75 92.414062 120.582031 C 103.039062 122.347656 111.964844 119.441406 120.144531 112.683594 C 120.917969 112.046875 121.640625 111.351562 122.328125 110.621094 C 128.761719 113.925781 136.109375 115.765625 143.359375 115.03125 C 152.675781 114.078125 161.429688 109.5625 167.410156 102.75 C 170.050781 103.351562 172.65625 103.777344 175.042969 104.070312 C 186.402344 105.480469 198.179688 101.898438 204.144531 91.683594 C 208.898438 83.550781 210.808594 78.773438 211.167969 69.75 C 211.371094 64.691406 207.6875 55.753906 204.507812 51.539062 " fill-opacity="1" fill-rule="nonzero"/><g clip-path="url(#9bf23e0c18)"><path fill="#f9f7dc" d="M 204.507812 51.539062 L 205.285156 50.953125 C 205.097656 50.703125 204.878906 50.488281 204.625 50.257812 C 204.183594 49.859375 203.628906 49.441406 203.027344 49.007812 C 202.121094 48.359375 201.097656 47.683594 200.214844 47.089844 C 199.773438 46.789062 199.363281 46.511719 199.023438 46.269531 C 198.691406 46.035156 198.421875 45.824219 198.28125 45.699219 L 197.632812 46.425781 L 198.605469 46.355469 C 198.566406 45.867188 198.550781 45.402344 198.550781 44.945312 C 198.550781 43.679688 198.671875 42.503906 198.796875 41.300781 C 198.917969 40.097656 199.046875 38.875 199.046875 37.535156 C 199.050781 35.167969 198.625 32.476562 197.113281 29.058594 C 195.660156 25.765625 193.3125 22.980469 190.492188 20.730469 C 187.667969 18.484375 184.367188 16.769531 180.960938 15.625 C 179.078125 14.992188 177.160156 14.707031 175.269531 14.707031 C 175.171875 14.707031 175.074219 14.707031 174.972656 14.707031 L 174.996094 15.683594 L 175.761719 15.078125 C 172.234375 10.589844 167.667969 7.488281 162.636719 5.378906 C 157.605469 3.265625 152.101562 2.132812 146.625 1.554688 C 145.882812 1.472656 145.136719 1.4375 144.386719 1.4375 C 141.136719 1.4375 137.867188 2.164062 134.945312 3.589844 C 134.210938 3.953125 133.527344 4.484375 132.839844 5.070312 C 131.808594 5.949219 130.769531 6.964844 129.785156 7.730469 C 129.292969 8.113281 128.816406 8.429688 128.390625 8.640625 C 127.960938 8.851562 127.589844 8.945312 127.292969 8.945312 L 127.292969 9.847656 L 127.34375 8.949219 L 127.292969 8.945312 L 127.292969 9.847656 L 127.34375 8.949219 L 127.285156 8.945312 C 127.019531 8.953125 126.539062 8.84375 125.992188 8.628906 C 125.167969 8.3125 124.179688 7.789062 123.238281 7.265625 C 122.289062 6.742188 121.402344 6.222656 120.652344 5.894531 C 118.765625 5.074219 116.886719 3.972656 114.769531 3.195312 C 109.992188 1.449219 104.984375 0.207031 99.804688 0.0820312 C 99.53125 0.0742188 99.253906 0.0703125 98.976562 0.0703125 C 93.4375 0.0703125 88.070312 1.449219 83.464844 4.121094 C 78.867188 6.789062 75.03125 10.757812 72.589844 15.894531 L 73.46875 16.316406 L 73.519531 15.339844 C 73.035156 15.316406 72.554688 15.304688 72.082031 15.304688 C 67.074219 15.300781 62.5625 16.628906 58.8125 19.226562 C 55.0625 21.820312 52.097656 25.667969 50.117188 30.617188 L 50.117188 30.621094 C 50.015625 30.875 49.953125 31.085938 49.890625 31.246094 L 50.808594 31.585938 L 50.773438 30.613281 C 43.273438 30.859375 35.910156 32.8125 29.128906 35.871094 C 24.019531 38.171875 20.128906 41.769531 17.53125 46.082031 C 14.933594 50.390625 13.625 55.40625 13.625 60.554688 C 13.625 62.710938 13.855469 64.890625 14.316406 67.058594 C 15.496094 72.625 18.359375 77.199219 22.199219 80.683594 C 26.039062 84.164062 30.851562 86.570312 35.980469 87.871094 L 36.222656 86.925781 L 35.246094 86.890625 C 35.230469 87.378906 35.222656 87.871094 35.222656 88.359375 C 35.21875 92.992188 35.996094 97.542969 37.867188 101.78125 C 39.730469 106.019531 42.6875 109.933594 46.988281 113.269531 C 49.703125 115.378906 52.480469 117.113281 55.480469 118.339844 C 58.480469 119.5625 61.699219 120.285156 65.261719 120.378906 C 65.4375 120.386719 65.617188 120.386719 65.792969 120.386719 C 71.003906 120.386719 75.515625 118.285156 79.488281 115.511719 L 78.929688 114.710938 L 78.351562 115.496094 C 82.417969 118.496094 87.066406 120.683594 92.253906 121.542969 C 94.34375 121.890625 96.378906 122.0625 98.355469 122.0625 C 102.515625 122.066406 106.441406 121.304688 110.160156 119.839844 C 113.878906 118.378906 117.394531 116.21875 120.765625 113.4375 C 121.574219 112.769531 122.328125 112.046875 123.039062 111.292969 L 122.328125 110.621094 L 121.882812 111.492188 C 127.480469 114.363281 133.765625 116.167969 140.140625 116.167969 C 141.246094 116.167969 142.351562 116.113281 143.457031 116 C 153.023438 115.023438 161.992188 110.398438 168.140625 103.398438 L 167.410156 102.75 L 167.195312 103.703125 C 169.875 104.3125 172.507812 104.738281 174.921875 105.039062 C 176.53125 105.238281 178.144531 105.339844 179.753906 105.339844 C 184.777344 105.339844 189.734375 104.347656 194.121094 102.203125 C 198.507812 100.058594 202.320312 96.75 204.992188 92.171875 C 207.375 88.085938 209.078125 84.796875 210.226562 81.359375 C 211.378906 77.921875 211.960938 74.359375 212.144531 69.789062 C 212.148438 69.640625 212.152344 69.492188 212.152344 69.34375 C 212.152344 67.945312 211.917969 66.390625 211.519531 64.746094 C 210.925781 62.285156 209.96875 59.648438 208.867188 57.21875 C 207.757812 54.789062 206.511719 52.574219 205.285156 50.953125 L 204.507812 51.539062 L 203.726562 52.128906 C 205.195312 54.066406 206.84375 57.1875 208.09375 60.410156 C 208.722656 62.023438 209.25 63.667969 209.621094 65.203125 C 209.996094 66.742188 210.203125 68.171875 210.199219 69.34375 C 210.199219 69.46875 210.199219 69.589844 210.195312 69.714844 C 210.015625 74.164062 209.460938 77.5 208.378906 80.738281 C 207.296875 83.980469 205.667969 87.144531 203.304688 91.191406 C 200.832031 95.417969 197.34375 98.453125 193.265625 100.449219 C 189.1875 102.441406 184.523438 103.390625 179.753906 103.386719 C 178.230469 103.386719 176.691406 103.289062 175.164062 103.101562 C 172.800781 102.808594 170.230469 102.390625 167.625 101.800781 C 167.277344 101.71875 166.914062 101.839844 166.675781 102.109375 C 160.871094 108.726562 152.328125 113.136719 143.261719 114.058594 C 142.222656 114.164062 141.179688 114.214844 140.140625 114.214844 C 134.140625 114.214844 128.136719 112.507812 122.773438 109.757812 C 122.386719 109.558594 121.914062 109.640625 121.617188 109.953125 C 120.953125 110.660156 120.261719 111.320312 119.523438 111.933594 C 116.285156 114.605469 112.945312 116.648438 109.445312 118.023438 C 105.945312 119.398438 102.28125 120.109375 98.355469 120.109375 C 96.488281 120.109375 94.5625 119.949219 92.570312 119.621094 C 87.730469 118.816406 83.371094 116.773438 79.507812 113.925781 C 79.175781 113.679688 78.714844 113.671875 78.375 113.910156 C 74.574219 116.558594 70.464844 118.4375 65.792969 118.4375 C 65.636719 118.4375 65.476562 118.433594 65.316406 118.429688 C 61.984375 118.335938 59.015625 117.671875 56.222656 116.53125 C 53.425781 115.386719 50.800781 113.761719 48.1875 111.730469 C 44.128906 108.570312 41.394531 104.941406 39.652344 100.996094 C 37.914062 97.046875 37.175781 92.777344 37.175781 88.359375 C 37.175781 87.894531 37.183594 87.429688 37.195312 86.957031 C 37.210938 86.5 36.90625 86.089844 36.460938 85.980469 C 31.601562 84.746094 27.078125 82.476562 23.511719 79.238281 C 19.941406 75.996094 17.320312 71.804688 16.222656 66.652344 C 15.792969 64.617188 15.574219 62.574219 15.574219 60.554688 C 15.574219 55.730469 16.804688 51.070312 19.203125 47.089844 C 21.609375 43.105469 25.179688 39.792969 29.929688 37.648438 C 36.511719 34.679688 43.636719 32.800781 50.835938 32.5625 C 51.234375 32.550781 51.582031 32.296875 51.71875 31.929688 C 51.8125 31.6875 51.871094 31.488281 51.929688 31.339844 C 53.789062 26.691406 56.523438 23.183594 59.925781 20.832031 C 63.328125 18.476562 67.417969 17.257812 72.082031 17.253906 C 72.523438 17.253906 72.96875 17.269531 73.421875 17.289062 C 73.816406 17.308594 74.183594 17.089844 74.351562 16.734375 C 76.621094 11.960938 80.164062 8.296875 84.449219 5.808594 C 88.730469 3.320312 93.761719 2.019531 98.976562 2.023438 C 99.234375 2.019531 99.492188 2.027344 99.753906 2.03125 C 104.652344 2.152344 109.453125 3.332031 114.101562 5.027344 C 116 5.722656 117.847656 6.792969 119.871094 7.683594 C 120.25 7.847656 120.78125 8.128906 121.363281 8.457031 C 122.25 8.945312 123.269531 9.535156 124.285156 10.015625 C 124.789062 10.253906 125.296875 10.46875 125.792969 10.628906 C 126.289062 10.785156 126.78125 10.894531 127.285156 10.898438 L 127.285156 10 L 127.234375 10.898438 L 127.285156 10.898438 L 127.285156 10 L 127.234375 10.898438 L 127.300781 10.898438 C 128.230469 10.890625 129.066406 10.53125 129.84375 10.066406 C 131.007812 9.355469 132.09375 8.351562 133.117188 7.433594 C 133.625 6.972656 134.117188 6.535156 134.574219 6.167969 C 135.03125 5.800781 135.453125 5.511719 135.804688 5.34375 C 138.441406 4.054688 141.429688 3.386719 144.386719 3.386719 C 145.066406 3.386719 145.746094 3.421875 146.417969 3.496094 C 151.765625 4.058594 157.089844 5.164062 161.882812 7.175781 C 166.675781 9.191406 170.933594 12.097656 174.226562 16.285156 C 174.414062 16.527344 174.707031 16.664062 175.015625 16.65625 C 175.097656 16.65625 175.183594 16.65625 175.269531 16.65625 C 176.964844 16.65625 178.664062 16.910156 180.339844 17.476562 C 183.546875 18.554688 186.65625 20.171875 189.273438 22.257812 C 191.894531 24.347656 194.027344 26.894531 195.328125 29.847656 C 196.742188 33.054688 197.089844 35.398438 197.097656 37.535156 C 197.097656 38.746094 196.976562 39.898438 196.851562 41.101562 C 196.730469 42.300781 196.601562 43.558594 196.601562 44.945312 C 196.601562 45.445312 196.617188 45.960938 196.660156 46.5 C 196.675781 46.75 196.792969 46.984375 196.980469 47.152344 C 197.351562 47.480469 197.871094 47.851562 198.507812 48.289062 C 199.453125 48.9375 200.625 49.699219 201.636719 50.417969 C 202.144531 50.773438 202.613281 51.121094 202.984375 51.425781 C 203.355469 51.722656 203.632812 52 203.726562 52.128906 L 204.507812 51.539062 " fill-opacity="1" fill-rule="nonzero"/></g><path fill="#cb6417" d="M 135.585938 132.601562 C 135.585938 139.101562 130.316406 144.371094 123.816406 144.371094 C 117.316406 144.371094 112.046875 139.101562 112.046875 132.601562 C 112.046875 126.097656 117.316406 120.828125 123.816406 120.828125 C 130.316406 120.828125 135.585938 126.097656 135.585938 132.601562 " fill-opacity="1" fill-rule="nonzero"/><path fill="#f9f7dc" d="M 135.585938 132.601562 L 134.609375 132.601562 C 134.609375 135.582031 133.402344 138.277344 131.449219 140.234375 C 129.492188 142.1875 126.800781 143.394531 123.816406 143.394531 C 120.832031 143.394531 118.140625 142.1875 116.183594 140.234375 C 114.230469 138.277344 113.023438 135.582031 113.023438 132.601562 C 113.023438 129.617188 114.230469 126.925781 116.183594 124.96875 C 118.140625 123.011719 120.832031 121.804688 123.816406 121.804688 C 126.800781 121.804688 129.492188 123.011719 131.449219 124.96875 C 133.402344 126.925781 134.609375 129.617188 134.609375 132.601562 L 136.5625 132.601562 C 136.558594 125.558594 130.855469 119.855469 123.816406 119.855469 C 116.777344 119.855469 111.070312 125.558594 111.070312 132.601562 C 111.070312 139.640625 116.777344 145.347656 123.816406 145.347656 C 130.855469 145.347656 136.558594 139.640625 136.5625 132.601562 L 135.585938 132.601562 " fill-opacity="1" fill-rule="nonzero"/><path fill="#cb6417" d="M 121.683594 158.269531 C 121.683594 162.914062 117.914062 166.679688 113.273438 166.679688 C 108.632812 166.679688 104.867188 162.914062 104.867188 158.269531 C 104.867188 153.625 108.632812 149.863281 113.273438 149.863281 C 117.914062 149.863281 121.683594 153.625 121.683594 158.269531 " fill-opacity="1" fill-rule="nonzero"/><path fill="#f9f7dc" d="M 121.683594 158.269531 L 120.707031 158.269531 C 120.703125 160.328125 119.875 162.175781 118.527344 163.527344 C 117.179688 164.871094 115.328125 165.703125 113.273438 165.703125 C 111.21875 165.703125 109.367188 164.871094 108.019531 163.527344 C 106.671875 162.175781 105.84375 160.328125 105.84375 158.269531 C 105.84375 156.214844 106.671875 154.363281 108.019531 153.015625 C 109.367188 151.667969 111.21875 150.839844 113.273438 150.839844 C 115.328125 150.839844 117.179688 151.667969 118.527344 153.015625 C 119.875 154.363281 120.703125 156.214844 120.707031 158.269531 L 122.65625 158.269531 C 122.65625 153.085938 118.457031 148.886719 113.273438 148.886719 C 108.09375 148.886719 103.890625 153.085938 103.886719 158.269531 C 103.890625 163.453125 108.09375 167.652344 113.273438 167.652344 C 118.457031 167.652344 122.65625 163.453125 122.65625 158.269531 L 121.683594 158.269531 " fill-opacity="1" fill-rule="nonzero"/><g clip-path="url(#b44348f4cc)"><path fill="#cb6417" d="M 107.367188 173 C 107.367188 176.324219 104.671875 179.015625 101.351562 179.015625 C 98.03125 179.015625 95.339844 176.324219 95.339844 173 C 95.339844 169.683594 98.03125 166.992188 101.351562 166.992188 C 104.671875 166.992188 107.367188 169.683594 107.367188 173 " fill-opacity="1" fill-rule="nonzero"/></g><g clip-path="url(#40241a7992)"><path fill="#f9f7dc" d="M 107.367188 173 L 106.390625 173 C 106.390625 174.398438 105.828125 175.648438 104.914062 176.566406 C 104 177.476562 102.746094 178.039062 101.351562 178.039062 C 99.960938 178.039062 98.707031 177.476562 97.792969 176.566406 C 96.875 175.648438 96.3125 174.398438 96.3125 173 C 96.3125 171.609375 96.875 170.355469 97.792969 169.441406 C 98.707031 168.527344 99.960938 167.964844 101.351562 167.964844 C 102.746094 167.964844 104 168.527344 104.914062 169.441406 C 105.828125 170.355469 106.390625 171.609375 106.390625 173 L 108.34375 173 C 108.339844 169.144531 105.210938 166.015625 101.351562 166.011719 C 97.492188 166.015625 94.363281 169.144531 94.363281 173 C 94.363281 176.863281 97.492188 179.992188 101.351562 179.992188 C 105.210938 179.992188 108.339844 176.863281 108.34375 173 L 107.367188 173 " fill-opacity="1" fill-rule="nonzero"/></g><g transform="matrix(1, 0, 0, 1, 97, 12)"><g clip-path="url(#99e4db5cdc)"><g clip-path="url(#2842cc1472)"><g fill="#f9f7dc" fill-opacity="1"><g transform="translate(0.990048, 24.113117)"><g><path d="M 6.640625 -5.0625 C 6.617188 -5.132812 6.601562 -5.21875 6.59375 -5.3125 C 6.59375 -5.40625 6.539062 -5.53125 6.4375 -5.6875 C 6.3125 -5.238281 6.203125 -4.816406 6.109375 -4.421875 C 6.015625 -4.035156 5.914062 -3.664062 5.8125 -3.3125 C 5.625 -2.601562 5.425781 -1.90625 5.21875 -1.21875 C 5.007812 -0.53125 4.757812 0.140625 4.46875 0.796875 C 4.25 1.316406 3.988281 1.65625 3.6875 1.8125 C 3.382812 1.96875 2.945312 2.007812 2.375 1.9375 C 1.820312 1.863281 1.410156 1.570312 1.140625 1.0625 C 0.859375 0.488281 0.628906 -0.09375 0.453125 -0.6875 C 0.285156 -1.28125 0.160156 -1.882812 0.078125 -2.5 C -0.148438 -4.09375 -0.210938 -5.675781 -0.109375 -7.25 C -0.00390625 -8.820312 0.238281 -10.382812 0.625 -11.9375 C 0.632812 -12.019531 0.648438 -12.097656 0.671875 -12.171875 C 0.703125 -12.253906 0.738281 -12.34375 0.78125 -12.4375 C 0.84375 -12.757812 1.046875 -12.921875 1.390625 -12.921875 C 1.535156 -12.921875 1.671875 -12.925781 1.796875 -12.9375 C 1.921875 -12.945312 2.054688 -12.953125 2.203125 -12.953125 C 2.546875 -12.960938 2.769531 -12.914062 2.875 -12.8125 C 2.976562 -12.707031 3.007812 -12.492188 2.96875 -12.171875 C 2.957031 -11.742188 2.925781 -11.316406 2.875 -10.890625 C 2.832031 -10.472656 2.804688 -10.046875 2.796875 -9.609375 C 2.742188 -8.210938 2.71875 -6.8125 2.71875 -5.40625 C 2.71875 -4.007812 2.820312 -2.613281 3.03125 -1.21875 C 3.0625 -1.0625 3.085938 -0.882812 3.109375 -0.6875 C 3.140625 -0.488281 3.238281 -0.378906 3.40625 -0.359375 C 3.613281 -0.347656 3.734375 -0.441406 3.765625 -0.640625 C 3.804688 -0.835938 3.84375 -1.007812 3.875 -1.15625 C 4.351562 -2.832031 4.828125 -4.507812 5.296875 -6.1875 C 5.765625 -7.863281 6.171875 -9.554688 6.515625 -11.265625 C 6.566406 -11.546875 6.628906 -11.710938 6.703125 -11.765625 C 6.785156 -11.828125 6.953125 -11.867188 7.203125 -11.890625 C 7.671875 -11.898438 8.015625 -11.875 8.234375 -11.8125 C 8.460938 -11.757812 8.613281 -11.625 8.6875 -11.40625 C 8.769531 -11.195312 8.828125 -10.859375 8.859375 -10.390625 C 8.960938 -9.046875 9.148438 -7.71875 9.421875 -6.40625 C 9.691406 -5.09375 10.003906 -3.789062 10.359375 -2.5 C 10.410156 -2.3125 10.472656 -2.117188 10.546875 -1.921875 C 10.628906 -1.722656 10.707031 -1.53125 10.78125 -1.34375 C 10.84375 -1.207031 10.914062 -1.066406 11 -0.921875 C 11.09375 -0.785156 11.234375 -0.726562 11.421875 -0.75 C 11.609375 -0.75 11.753906 -0.800781 11.859375 -0.90625 C 11.960938 -1.019531 12.050781 -1.15625 12.125 -1.3125 C 12.207031 -1.507812 12.296875 -1.707031 12.390625 -1.90625 C 12.484375 -2.101562 12.566406 -2.300781 12.640625 -2.5 C 12.878906 -3.226562 13.070312 -3.960938 13.21875 -4.703125 C 13.363281 -5.441406 13.472656 -6.191406 13.546875 -6.953125 C 13.578125 -7.347656 13.4375 -7.679688 13.125 -7.953125 C 12.539062 -8.523438 12.050781 -9.15625 11.65625 -9.84375 C 11.257812 -10.53125 10.972656 -11.289062 10.796875 -12.125 C 10.742188 -12.4375 10.71875 -12.742188 10.71875 -13.046875 C 10.71875 -13.359375 10.769531 -13.671875 10.875 -13.984375 C 11.070312 -14.546875 11.425781 -14.957031 11.9375 -15.21875 C 12.332031 -15.425781 12.726562 -15.460938 13.125 -15.328125 C 13.519531 -15.203125 13.847656 -14.941406 14.109375 -14.546875 C 14.316406 -14.203125 14.476562 -13.835938 14.59375 -13.453125 C 14.71875 -13.078125 14.816406 -12.6875 14.890625 -12.28125 C 14.972656 -11.738281 15.035156 -11.195312 15.078125 -10.65625 C 15.117188 -10.113281 15.140625 -9.566406 15.140625 -9.015625 C 15.140625 -8.617188 15.195312 -8.335938 15.3125 -8.171875 C 15.425781 -8.015625 15.660156 -7.898438 16.015625 -7.828125 C 16.484375 -7.722656 16.957031 -7.640625 17.4375 -7.578125 C 17.925781 -7.523438 18.421875 -7.53125 18.921875 -7.59375 C 18.972656 -7.59375 19.023438 -7.597656 19.078125 -7.609375 C 19.140625 -7.617188 19.207031 -7.625 19.28125 -7.625 C 19.414062 -7.644531 19.539062 -7.640625 19.65625 -7.609375 C 19.769531 -7.585938 19.832031 -7.472656 19.84375 -7.265625 C 19.863281 -7.035156 19.84375 -6.875 19.78125 -6.78125 C 19.71875 -6.6875 19.585938 -6.625 19.390625 -6.59375 C 18.898438 -6.519531 18.414062 -6.488281 17.9375 -6.5 C 17.46875 -6.507812 17.003906 -6.554688 16.546875 -6.640625 C 16.347656 -6.671875 16.160156 -6.695312 15.984375 -6.71875 C 15.804688 -6.75 15.628906 -6.785156 15.453125 -6.828125 C 15.179688 -6.890625 15.023438 -6.769531 14.984375 -6.46875 C 14.921875 -6.050781 14.859375 -5.628906 14.796875 -5.203125 C 14.734375 -4.785156 14.660156 -4.367188 14.578125 -3.953125 C 14.492188 -3.453125 14.378906 -2.957031 14.234375 -2.46875 C 14.097656 -1.988281 13.921875 -1.523438 13.703125 -1.078125 C 13.367188 -0.410156 12.898438 0.078125 12.296875 0.390625 C 11.691406 0.703125 11.054688 0.804688 10.390625 0.703125 C 9.734375 0.597656 9.140625 0.273438 8.609375 -0.265625 C 8.316406 -0.554688 8.066406 -0.878906 7.859375 -1.234375 C 7.648438 -1.597656 7.46875 -1.976562 7.3125 -2.375 C 7.144531 -2.8125 7.007812 -3.253906 6.90625 -3.703125 C 6.800781 -4.148438 6.710938 -4.601562 6.640625 -5.0625 Z M 12.875 -13.265625 C 12.820312 -12.828125 12.847656 -12.414062 12.953125 -12.03125 C 13.066406 -11.65625 13.238281 -11.289062 13.46875 -10.9375 C 13.414062 -11.332031 13.363281 -11.726562 13.3125 -12.125 C 13.257812 -12.53125 13.113281 -12.910156 12.875 -13.265625 Z M 12.875 -13.265625 "/></g></g></g></g><g clip-path="url(#4e51cceb41)"><g fill="#f9f7dc" fill-opacity="1"><g transform="translate(20.142078, 24.113117)"><g><path d="M 10.828125 -7.515625 C 11.003906 -7.410156 11.066406 -7.304688 11.015625 -7.203125 C 10.960938 -7.109375 10.898438 -7.007812 10.828125 -6.90625 C 10.222656 -6.007812 9.601562 -5.117188 8.96875 -4.234375 C 8.34375 -3.359375 7.710938 -2.484375 7.078125 -1.609375 C 6.703125 -1.109375 6.253906 -0.753906 5.734375 -0.546875 C 5.222656 -0.335938 4.691406 -0.25 4.140625 -0.28125 C 3.597656 -0.320312 3.085938 -0.445312 2.609375 -0.65625 C 2.128906 -0.875 1.734375 -1.164062 1.421875 -1.53125 C 0.953125 -2.113281 0.578125 -2.734375 0.296875 -3.390625 C 0.0234375 -4.054688 -0.164062 -4.757812 -0.28125 -5.5 C -0.332031 -5.757812 -0.367188 -6.019531 -0.390625 -6.28125 C -0.421875 -6.550781 -0.425781 -6.828125 -0.40625 -7.109375 C -0.394531 -7.929688 -0.296875 -8.742188 -0.109375 -9.546875 C 0.0664062 -10.347656 0.351562 -11.128906 0.75 -11.890625 C 0.96875 -12.316406 1.238281 -12.710938 1.5625 -13.078125 C 1.882812 -13.453125 2.257812 -13.757812 2.6875 -14 C 3.164062 -14.28125 3.644531 -14.4375 4.125 -14.46875 C 4.613281 -14.507812 5.097656 -14.363281 5.578125 -14.03125 C 6.066406 -13.707031 6.394531 -13.3125 6.5625 -12.84375 C 6.738281 -12.375 6.78125 -11.859375 6.6875 -11.296875 C 6.539062 -10.273438 6.1875 -9.421875 5.625 -8.734375 C 5.0625 -8.046875 4.28125 -7.554688 3.28125 -7.265625 C 2.957031 -7.179688 2.800781 -6.984375 2.8125 -6.671875 C 2.832031 -5.929688 2.914062 -5.203125 3.0625 -4.484375 C 3.207031 -3.765625 3.394531 -3.0625 3.625 -2.375 C 3.71875 -2.0625 3.878906 -1.785156 4.109375 -1.546875 C 4.421875 -1.222656 4.765625 -1.191406 5.140625 -1.453125 C 5.273438 -1.535156 5.394531 -1.628906 5.5 -1.734375 C 5.601562 -1.847656 5.707031 -1.96875 5.8125 -2.09375 C 6.4375 -2.800781 7.03125 -3.53125 7.59375 -4.28125 C 8.164062 -5.03125 8.726562 -5.78125 9.28125 -6.53125 C 9.382812 -6.6875 9.488281 -6.847656 9.59375 -7.015625 C 9.707031 -7.179688 9.828125 -7.34375 9.953125 -7.5 C 10.085938 -7.65625 10.210938 -7.734375 10.328125 -7.734375 C 10.453125 -7.734375 10.617188 -7.660156 10.828125 -7.515625 Z M 3.234375 -10.671875 C 3.128906 -10.253906 3.035156 -9.832031 2.953125 -9.40625 C 2.878906 -8.988281 2.84375 -8.554688 2.84375 -8.109375 C 2.925781 -8.097656 3 -8.097656 3.0625 -8.109375 C 3.125 -8.128906 3.179688 -8.15625 3.234375 -8.1875 C 3.640625 -8.425781 3.988281 -8.796875 4.28125 -9.296875 C 4.582031 -9.796875 4.785156 -10.332031 4.890625 -10.90625 C 4.992188 -11.476562 4.972656 -11.988281 4.828125 -12.4375 C 4.816406 -12.445312 4.8125 -12.460938 4.8125 -12.484375 C 4.8125 -12.515625 4.800781 -12.539062 4.78125 -12.5625 C 4.726562 -12.664062 4.671875 -12.765625 4.609375 -12.859375 C 4.546875 -12.953125 4.457031 -13 4.34375 -13 C 4.21875 -13.019531 4.117188 -12.984375 4.046875 -12.890625 C 3.984375 -12.804688 3.925781 -12.710938 3.875 -12.609375 C 3.757812 -12.285156 3.644531 -11.960938 3.53125 -11.640625 C 3.414062 -11.328125 3.316406 -11.003906 3.234375 -10.671875 Z M 3.234375 -10.671875 "/></g></g></g></g></g></g><g transform="matrix(1, 0, 0, 1, 71, 40)"><g clip-path="url(#6a1c507fe8)"><g clip-path="url(#6c1f930916)"><g fill="#f9f7dc" fill-opacity="1"><g transform="translate(1.026249, 24.412499)"><g><path d="M 6.640625 -5.0625 C 6.617188 -5.132812 6.601562 -5.21875 6.59375 -5.3125 C 6.59375 -5.40625 6.539062 -5.53125 6.4375 -5.6875 C 6.3125 -5.238281 6.203125 -4.816406 6.109375 -4.421875 C 6.015625 -4.035156 5.914062 -3.664062 5.8125 -3.3125 C 5.625 -2.601562 5.425781 -1.90625 5.21875 -1.21875 C 5.007812 -0.53125 4.757812 0.140625 4.46875 0.796875 C 4.25 1.316406 3.988281 1.65625 3.6875 1.8125 C 3.382812 1.96875 2.945312 2.007812 2.375 1.9375 C 1.820312 1.863281 1.410156 1.570312 1.140625 1.0625 C 0.859375 0.488281 0.628906 -0.09375 0.453125 -0.6875 C 0.285156 -1.28125 0.160156 -1.882812 0.078125 -2.5 C -0.148438 -4.09375 -0.210938 -5.675781 -0.109375 -7.25 C -0.00390625 -8.820312 0.238281 -10.382812 0.625 -11.9375 C 0.632812 -12.019531 0.648438 -12.097656 0.671875 -12.171875 C 0.703125 -12.253906 0.738281 -12.34375 0.78125 -12.4375 C 0.84375 -12.757812 1.046875 -12.921875 1.390625 -12.921875 C 1.535156 -12.921875 1.671875 -12.925781 1.796875 -12.9375 C 1.921875 -12.945312 2.054688 -12.953125 2.203125 -12.953125 C 2.546875 -12.960938 2.769531 -12.914062 2.875 -12.8125 C 2.976562 -12.707031 3.007812 -12.492188 2.96875 -12.171875 C 2.957031 -11.742188 2.925781 -11.316406 2.875 -10.890625 C 2.832031 -10.472656 2.804688 -10.046875 2.796875 -9.609375 C 2.742188 -8.210938 2.71875 -6.8125 2.71875 -5.40625 C 2.71875 -4.007812 2.820312 -2.613281 3.03125 -1.21875 C 3.0625 -1.0625 3.085938 -0.882812 3.109375 -0.6875 C 3.140625 -0.488281 3.238281 -0.378906 3.40625 -0.359375 C 3.613281 -0.347656 3.734375 -0.441406 3.765625 -0.640625 C 3.804688 -0.835938 3.84375 -1.007812 3.875 -1.15625 C 4.351562 -2.832031 4.828125 -4.507812 5.296875 -6.1875 C 5.765625 -7.863281 6.171875 -9.554688 6.515625 -11.265625 C 6.566406 -11.546875 6.628906 -11.710938 6.703125 -11.765625 C 6.785156 -11.828125 6.953125 -11.867188 7.203125 -11.890625 C 7.671875 -11.898438 8.015625 -11.875 8.234375 -11.8125 C 8.460938 -11.757812 8.613281 -11.625 8.6875 -11.40625 C 8.769531 -11.195312 8.828125 -10.859375 8.859375 -10.390625 C 8.960938 -9.046875 9.148438 -7.71875 9.421875 -6.40625 C 9.691406 -5.09375 10.003906 -3.789062 10.359375 -2.5 C 10.410156 -2.3125 10.472656 -2.117188 10.546875 -1.921875 C 10.628906 -1.722656 10.707031 -1.53125 10.78125 -1.34375 C 10.84375 -1.207031 10.914062 -1.066406 11 -0.921875 C 11.09375 -0.785156 11.234375 -0.726562 11.421875 -0.75 C 11.609375 -0.75 11.753906 -0.800781 11.859375 -0.90625 C 11.960938 -1.019531 12.050781 -1.15625 12.125 -1.3125 C 12.207031 -1.507812 12.296875 -1.707031 12.390625 -1.90625 C 12.484375 -2.101562 12.566406 -2.300781 12.640625 -2.5 C 12.878906 -3.226562 13.070312 -3.960938 13.21875 -4.703125 C 13.363281 -5.441406 13.472656 -6.191406 13.546875 -6.953125 C 13.578125 -7.347656 13.4375 -7.679688 13.125 -7.953125 C 12.539062 -8.523438 12.050781 -9.15625 11.65625 -9.84375 C 11.257812 -10.53125 10.972656 -11.289062 10.796875 -12.125 C 10.742188 -12.4375 10.71875 -12.742188 10.71875 -13.046875 C 10.71875 -13.359375 10.769531 -13.671875 10.875 -13.984375 C 11.070312 -14.546875 11.425781 -14.957031 11.9375 -15.21875 C 12.332031 -15.425781 12.726562 -15.460938 13.125 -15.328125 C 13.519531 -15.203125 13.847656 -14.941406 14.109375 -14.546875 C 14.316406 -14.203125 14.476562 -13.835938 14.59375 -13.453125 C 14.71875 -13.078125 14.816406 -12.6875 14.890625 -12.28125 C 14.972656 -11.738281 15.035156 -11.195312 15.078125 -10.65625 C 15.117188 -10.113281 15.140625 -9.566406 15.140625 -9.015625 C 15.140625 -8.617188 15.195312 -8.335938 15.3125 -8.171875 C 15.425781 -8.015625 15.660156 -7.898438 16.015625 -7.828125 C 16.484375 -7.722656 16.957031 -7.640625 17.4375 -7.578125 C 17.925781 -7.523438 18.421875 -7.53125 18.921875 -7.59375 C 18.972656 -7.59375 19.023438 -7.597656 19.078125 -7.609375 C 19.140625 -7.617188 19.207031 -7.625 19.28125 -7.625 C 19.414062 -7.644531 19.539062 -7.640625 19.65625 -7.609375 C 19.769531 -7.585938 19.832031 -7.472656 19.84375 -7.265625 C 19.863281 -7.035156 19.84375 -6.875 19.78125 -6.78125 C 19.71875 -6.6875 19.585938 -6.625 19.390625 -6.59375 C 18.898438 -6.519531 18.414062 -6.488281 17.9375 -6.5 C 17.46875 -6.507812 17.003906 -6.554688 16.546875 -6.640625 C 16.347656 -6.671875 16.160156 -6.695312 15.984375 -6.71875 C 15.804688 -6.75 15.628906 -6.785156 15.453125 -6.828125 C 15.179688 -6.890625 15.023438 -6.769531 14.984375 -6.46875 C 14.921875 -6.050781 14.859375 -5.628906 14.796875 -5.203125 C 14.734375 -4.785156 14.660156 -4.367188 14.578125 -3.953125 C 14.492188 -3.453125 14.378906 -2.957031 14.234375 -2.46875 C 14.097656 -1.988281 13.921875 -1.523438 13.703125 -1.078125 C 13.367188 -0.410156 12.898438 0.078125 12.296875 0.390625 C 11.691406 0.703125 11.054688 0.804688 10.390625 0.703125 C 9.734375 0.597656 9.140625 0.273438 8.609375 -0.265625 C 8.316406 -0.554688 8.066406 -0.878906 7.859375 -1.234375 C 7.648438 -1.597656 7.46875 -1.976562 7.3125 -2.375 C 7.144531 -2.8125 7.007812 -3.253906 6.90625 -3.703125 C 6.800781 -4.148438 6.710938 -4.601562 6.640625 -5.0625 Z M 12.875 -13.265625 C 12.820312 -12.828125 12.847656 -12.414062 12.953125 -12.03125 C 13.066406 -11.65625 13.238281 -11.289062 13.46875 -10.9375 C 13.414062 -11.332031 13.363281 -11.726562 13.3125 -12.125 C 13.257812 -12.53125 13.113281 -12.910156 12.875 -13.265625 Z M 12.875 -13.265625 "/></g></g></g></g><g fill="#f9f7dc" fill-opacity="1"><g transform="translate(20.178279, 24.412499)"><g><path d="M 13.875 -7.234375 C 14.113281 -7.128906 14.242188 -7.039062 14.265625 -6.96875 C 14.296875 -6.90625 14.257812 -6.742188 14.15625 -6.484375 C 13.65625 -5.367188 13.144531 -4.265625 12.625 -3.171875 C 12.101562 -2.078125 11.554688 -0.984375 10.984375 0.109375 C 10.859375 0.347656 10.71875 0.585938 10.5625 0.828125 C 10.414062 1.066406 10.242188 1.289062 10.046875 1.5 C 9.703125 1.875 9.289062 2.097656 8.8125 2.171875 C 8.332031 2.253906 7.867188 2.195312 7.421875 2 C 6.972656 1.800781 6.628906 1.476562 6.390625 1.03125 C 6.128906 0.53125 5.929688 0.0078125 5.796875 -0.53125 C 5.671875 -1.070312 5.566406 -1.617188 5.484375 -2.171875 C 5.390625 -2.691406 5.328125 -3.203125 5.296875 -3.703125 C 5.273438 -4.210938 5.25 -4.726562 5.21875 -5.25 C 5.21875 -5.300781 5.21875 -5.363281 5.21875 -5.4375 C 5.21875 -5.519531 5.175781 -5.59375 5.09375 -5.65625 C 4.957031 -5.394531 4.8125 -5.144531 4.65625 -4.90625 C 4.507812 -4.664062 4.363281 -4.414062 4.21875 -4.15625 C 4.070312 -3.914062 3.914062 -3.679688 3.75 -3.453125 C 3.59375 -3.234375 3.421875 -3.015625 3.234375 -2.796875 C 2.847656 -2.398438 2.375 -2.203125 1.8125 -2.203125 C 1.082031 -2.203125 0.582031 -2.523438 0.3125 -3.171875 C 0.175781 -3.503906 0.0703125 -3.84375 0 -4.1875 C -0.0703125 -4.53125 -0.113281 -4.875 -0.125 -5.21875 C -0.164062 -5.957031 -0.132812 -6.679688 -0.03125 -7.390625 C 0.0703125 -8.097656 0.269531 -8.785156 0.5625 -9.453125 C 0.90625 -10.242188 1.363281 -10.914062 1.9375 -11.46875 C 2.519531 -12.019531 3.257812 -12.382812 4.15625 -12.5625 C 4.46875 -12.613281 4.765625 -12.617188 5.046875 -12.578125 C 5.335938 -12.546875 5.628906 -12.5 5.921875 -12.4375 C 6.085938 -12.394531 6.285156 -12.410156 6.515625 -12.484375 C 6.859375 -12.617188 7.210938 -12.679688 7.578125 -12.671875 C 7.953125 -12.660156 8.320312 -12.648438 8.6875 -12.640625 C 8.769531 -12.640625 8.828125 -12.609375 8.859375 -12.546875 C 8.898438 -12.484375 8.925781 -12.421875 8.9375 -12.359375 C 8.988281 -12.203125 9.019531 -12.039062 9.03125 -11.875 C 9.039062 -11.707031 9.046875 -11.546875 9.046875 -11.390625 C 9.023438 -10.015625 8.976562 -8.640625 8.90625 -7.265625 C 8.84375 -5.898438 8.769531 -4.53125 8.6875 -3.15625 C 8.644531 -2.632812 8.613281 -2.117188 8.59375 -1.609375 C 8.582031 -1.109375 8.585938 -0.597656 8.609375 -0.078125 C 8.609375 0.0546875 8.613281 0.203125 8.625 0.359375 C 8.644531 0.515625 8.691406 0.671875 8.765625 0.828125 C 8.898438 0.773438 9.003906 0.691406 9.078125 0.578125 C 9.160156 0.460938 9.234375 0.363281 9.296875 0.28125 C 9.710938 -0.320312 10.09375 -0.945312 10.4375 -1.59375 C 10.78125 -2.238281 11.117188 -2.890625 11.453125 -3.546875 C 11.742188 -4.097656 12.019531 -4.648438 12.28125 -5.203125 C 12.550781 -5.765625 12.828125 -6.320312 13.109375 -6.875 C 13.242188 -7.144531 13.347656 -7.296875 13.421875 -7.328125 C 13.503906 -7.367188 13.65625 -7.335938 13.875 -7.234375 Z M 5.921875 -10.59375 C 5.953125 -10.957031 5.867188 -11.21875 5.671875 -11.375 C 5.472656 -11.53125 5.203125 -11.5625 4.859375 -11.46875 C 4.722656 -11.414062 4.59375 -11.351562 4.46875 -11.28125 C 4.351562 -11.207031 4.242188 -11.117188 4.140625 -11.015625 C 3.929688 -10.816406 3.75 -10.609375 3.59375 -10.390625 C 3.4375 -10.179688 3.289062 -9.96875 3.15625 -9.75 C 2.632812 -8.9375 2.269531 -8.082031 2.0625 -7.1875 C 1.851562 -6.300781 1.742188 -5.382812 1.734375 -4.4375 C 1.734375 -4.375 1.726562 -4.300781 1.71875 -4.21875 C 1.707031 -4.144531 1.710938 -4.070312 1.734375 -4 C 1.742188 -3.84375 1.734375 -3.671875 1.703125 -3.484375 C 1.671875 -3.296875 1.765625 -3.175781 1.984375 -3.125 C 2.179688 -3.070312 2.328125 -3.128906 2.421875 -3.296875 C 2.523438 -3.460938 2.613281 -3.613281 2.6875 -3.75 C 3.269531 -4.707031 3.804688 -5.691406 4.296875 -6.703125 C 4.796875 -7.710938 5.269531 -8.726562 5.71875 -9.75 C 5.8125 -10 5.878906 -10.28125 5.921875 -10.59375 Z M 5.921875 -10.59375 "/></g></g></g><g fill="#f9f7dc" fill-opacity="1"><g transform="translate(33.489069, 24.412499)"><g><path d="M 14.53125 -7.546875 C 14.769531 -7.492188 14.921875 -7.425781 14.984375 -7.34375 C 15.054688 -7.269531 15.054688 -7.113281 14.984375 -6.875 C 14.710938 -5.820312 14.382812 -4.796875 14 -3.796875 C 13.625 -2.796875 13.144531 -1.847656 12.5625 -0.953125 C 12.320312 -0.585938 12.070312 -0.285156 11.8125 -0.046875 C 11.445312 0.273438 10.976562 0.476562 10.40625 0.5625 C 9.84375 0.65625 9.347656 0.597656 8.921875 0.390625 C 8.671875 0.285156 8.476562 0.140625 8.34375 -0.046875 C 8.207031 -0.242188 8.085938 -0.460938 7.984375 -0.703125 C 7.828125 -1.097656 7.710938 -1.503906 7.640625 -1.921875 C 7.578125 -2.347656 7.535156 -2.773438 7.515625 -3.203125 C 7.460938 -4.078125 7.46875 -4.953125 7.53125 -5.828125 C 7.59375 -6.703125 7.640625 -7.578125 7.671875 -8.453125 C 7.722656 -9.398438 7.65625 -10.347656 7.46875 -11.296875 C 7.4375 -11.429688 7.394531 -11.578125 7.34375 -11.734375 C 7.300781 -11.898438 7.1875 -12.003906 7 -12.046875 C 6.832031 -12.078125 6.695312 -12.035156 6.59375 -11.921875 C 6.488281 -11.816406 6.382812 -11.703125 6.28125 -11.578125 C 5.300781 -10.359375 4.550781 -9.003906 4.03125 -7.515625 C 3.613281 -6.328125 3.25 -5.125 2.9375 -3.90625 C 2.632812 -2.695312 2.367188 -1.484375 2.140625 -0.265625 C 2.078125 0.0859375 2.007812 0.285156 1.9375 0.328125 C 1.863281 0.378906 1.664062 0.414062 1.34375 0.4375 C 1.21875 0.4375 1.09375 0.441406 0.96875 0.453125 C 0.851562 0.460938 0.738281 0.46875 0.625 0.46875 C 0.226562 0.5 -0.015625 0.472656 -0.109375 0.390625 C -0.210938 0.316406 -0.289062 0.0976562 -0.34375 -0.265625 C -0.40625 -0.710938 -0.46875 -1.160156 -0.53125 -1.609375 C -0.601562 -2.054688 -0.648438 -2.503906 -0.671875 -2.953125 C -0.742188 -4.585938 -0.734375 -6.21875 -0.640625 -7.84375 C -0.554688 -9.46875 -0.378906 -11.09375 -0.109375 -12.71875 C -0.109375 -12.78125 -0.09375 -12.847656 -0.0625 -12.921875 C -0.0390625 -12.992188 -0.03125 -13.0625 -0.03125 -13.125 C 0.0078125 -13.46875 0.207031 -13.632812 0.5625 -13.625 C 0.976562 -13.625 1.421875 -13.628906 1.890625 -13.640625 C 2.203125 -13.660156 2.375 -13.507812 2.40625 -13.1875 C 2.414062 -12.957031 2.421875 -12.757812 2.421875 -12.59375 C 2.421875 -11.945312 2.421875 -11.300781 2.421875 -10.65625 C 2.421875 -10.007812 2.421875 -9.359375 2.421875 -8.703125 C 2.421875 -8.597656 2.421875 -8.484375 2.421875 -8.359375 C 2.421875 -8.242188 2.421875 -8.109375 2.421875 -7.953125 C 2.566406 -8.054688 2.660156 -8.171875 2.703125 -8.296875 C 2.742188 -8.421875 2.789062 -8.53125 2.84375 -8.625 C 3.101562 -9.164062 3.375 -9.6875 3.65625 -10.1875 C 3.9375 -10.695312 4.257812 -11.1875 4.625 -11.65625 C 4.914062 -12.019531 5.238281 -12.328125 5.59375 -12.578125 C 5.945312 -12.835938 6.359375 -13.019531 6.828125 -13.125 C 7.859375 -13.363281 8.640625 -13.019531 9.171875 -12.09375 C 9.347656 -11.78125 9.472656 -11.453125 9.546875 -11.109375 C 9.628906 -10.765625 9.6875 -10.421875 9.71875 -10.078125 C 9.75 -9.578125 9.757812 -9.078125 9.75 -8.578125 C 9.75 -8.078125 9.722656 -7.578125 9.671875 -7.078125 C 9.578125 -6.148438 9.515625 -5.21875 9.484375 -4.28125 C 9.453125 -3.34375 9.539062 -2.40625 9.75 -1.46875 C 9.75 -1.414062 9.75 -1.367188 9.75 -1.328125 C 9.757812 -1.285156 9.773438 -1.238281 9.796875 -1.1875 C 9.847656 -1.03125 9.894531 -0.863281 9.9375 -0.6875 C 9.976562 -0.519531 10.101562 -0.421875 10.3125 -0.390625 C 10.5 -0.359375 10.65625 -0.40625 10.78125 -0.53125 C 10.914062 -0.65625 11.035156 -0.789062 11.140625 -0.9375 C 11.304688 -1.132812 11.457031 -1.359375 11.59375 -1.609375 C 11.738281 -1.859375 11.878906 -2.109375 12.015625 -2.359375 C 12.410156 -3.109375 12.765625 -3.878906 13.078125 -4.671875 C 13.390625 -5.460938 13.679688 -6.265625 13.953125 -7.078125 C 13.984375 -7.210938 14.03125 -7.335938 14.09375 -7.453125 C 14.15625 -7.566406 14.300781 -7.597656 14.53125 -7.546875 Z M 14.53125 -7.546875 "/></g></g></g><g fill="#f9f7dc" fill-opacity="1"><g transform="translate(47.239246, 24.412499)"><g><path d="M 0.1875 -3.09375 C 0.0078125 -4.144531 -0.109375 -5.191406 -0.171875 -6.234375 C -0.242188 -7.285156 -0.25 -8.304688 -0.1875 -9.296875 C -0.21875 -10.335938 -0.1875 -11.347656 -0.09375 -12.328125 C -0.0078125 -13.304688 0.0859375 -14.289062 0.203125 -15.28125 C 0.253906 -15.582031 0.253906 -15.757812 0.203125 -15.8125 C 0.148438 -15.863281 -0.0351562 -15.890625 -0.359375 -15.890625 C -0.597656 -15.890625 -0.84375 -15.890625 -1.09375 -15.890625 C -1.34375 -15.890625 -1.585938 -15.890625 -1.828125 -15.890625 C -1.972656 -15.910156 -2.113281 -15.929688 -2.25 -15.953125 C -2.382812 -15.984375 -2.441406 -16.109375 -2.421875 -16.328125 C -2.421875 -16.535156 -2.390625 -16.679688 -2.328125 -16.765625 C -2.273438 -16.859375 -2.132812 -16.921875 -1.90625 -16.953125 C -1.582031 -17.003906 -1.253906 -17.050781 -0.921875 -17.09375 C -0.597656 -17.132812 -0.273438 -17.164062 0.046875 -17.1875 C 0.390625 -17.21875 0.597656 -17.40625 0.671875 -17.75 C 0.742188 -18.082031 0.828125 -18.398438 0.921875 -18.703125 C 1.015625 -19.015625 1.113281 -19.328125 1.21875 -19.640625 C 1.332031 -19.984375 1.5625 -20.144531 1.90625 -20.125 C 2.15625 -20.113281 2.394531 -20.109375 2.625 -20.109375 C 2.851562 -20.117188 3.082031 -20.125 3.3125 -20.125 C 3.570312 -20.113281 3.726562 -20.070312 3.78125 -20 C 3.84375 -19.9375 3.875 -19.773438 3.875 -19.515625 C 3.894531 -19.078125 3.882812 -18.632812 3.84375 -18.1875 C 3.8125 -17.84375 3.820312 -17.640625 3.875 -17.578125 C 3.925781 -17.523438 4.132812 -17.5 4.5 -17.5 C 5.21875 -17.507812 5.941406 -17.539062 6.671875 -17.59375 C 7.410156 -17.644531 8.140625 -17.65625 8.859375 -17.625 C 9.171875 -17.625 9.484375 -17.625 9.796875 -17.625 C 10.117188 -17.625 10.445312 -17.609375 10.78125 -17.578125 C 11.050781 -17.554688 11.222656 -17.492188 11.296875 -17.390625 C 11.378906 -17.285156 11.40625 -17.101562 11.375 -16.84375 C 11.332031 -16.65625 11.242188 -16.554688 11.109375 -16.546875 C 10.992188 -16.523438 10.882812 -16.503906 10.78125 -16.484375 C 10.675781 -16.472656 10.5625 -16.46875 10.4375 -16.46875 C 9.4375 -16.414062 8.429688 -16.363281 7.421875 -16.3125 C 6.421875 -16.257812 5.410156 -16.195312 4.390625 -16.125 C 4.023438 -16.101562 3.804688 -16.0625 3.734375 -16 C 3.671875 -15.945312 3.613281 -15.726562 3.5625 -15.34375 C 3.457031 -14.414062 3.375 -13.484375 3.3125 -12.546875 C 3.257812 -11.609375 3.195312 -10.675781 3.125 -9.75 C 3.0625 -8.695312 3.019531 -7.648438 3 -6.609375 C 2.976562 -5.566406 2.976562 -4.519531 3 -3.46875 C 3.019531 -2.863281 3.078125 -2.265625 3.171875 -1.671875 C 3.265625 -1.085938 3.378906 -0.503906 3.515625 0.078125 C 3.566406 0.296875 3.644531 0.53125 3.75 0.78125 C 3.914062 1.125 4.09375 1.304688 4.28125 1.328125 C 4.476562 1.359375 4.707031 1.226562 4.96875 0.9375 C 5.0625 0.832031 5.144531 0.71875 5.21875 0.59375 C 5.300781 0.46875 5.378906 0.347656 5.453125 0.234375 C 5.816406 -0.367188 6.113281 -0.988281 6.34375 -1.625 C 6.570312 -2.257812 6.8125 -2.898438 7.0625 -3.546875 C 7.25 -4.046875 7.421875 -4.539062 7.578125 -5.03125 C 7.742188 -5.519531 7.914062 -6.015625 8.09375 -6.515625 C 8.125 -6.617188 8.15625 -6.722656 8.1875 -6.828125 C 8.226562 -6.929688 8.316406 -6.984375 8.453125 -6.984375 C 8.796875 -6.992188 9.085938 -6.90625 9.328125 -6.71875 C 9.378906 -6.664062 9.40625 -6.609375 9.40625 -6.546875 C 9.40625 -6.492188 9.394531 -6.441406 9.375 -6.390625 C 9.050781 -5.265625 8.734375 -4.144531 8.421875 -3.03125 C 8.109375 -1.925781 7.679688 -0.851562 7.140625 0.1875 C 7.035156 0.382812 6.90625 0.585938 6.75 0.796875 C 6.257812 1.503906 5.660156 1.941406 4.953125 2.109375 C 4.253906 2.273438 3.507812 2.234375 2.71875 1.984375 C 2.425781 1.898438 2.175781 1.742188 1.96875 1.515625 C 1.757812 1.296875 1.578125 1.050781 1.421875 0.78125 C 1.097656 0.175781 0.835938 -0.453125 0.640625 -1.109375 C 0.441406 -1.765625 0.289062 -2.425781 0.1875 -3.09375 Z M 0.1875 -3.09375 "/></g></g></g><g fill="#f9f7dc" fill-opacity="1"><g transform="translate(55.329106, 24.412499)"><g/></g></g><g fill="#f9f7dc" fill-opacity="1"><g transform="translate(63.444815, 24.412499)"><g><path d="M 0.1875 -3.09375 C 0.0078125 -4.144531 -0.109375 -5.191406 -0.171875 -6.234375 C -0.242188 -7.285156 -0.25 -8.304688 -0.1875 -9.296875 C -0.21875 -10.335938 -0.1875 -11.347656 -0.09375 -12.328125 C -0.0078125 -13.304688 0.0859375 -14.289062 0.203125 -15.28125 C 0.253906 -15.582031 0.253906 -15.757812 0.203125 -15.8125 C 0.148438 -15.863281 -0.0351562 -15.890625 -0.359375 -15.890625 C -0.597656 -15.890625 -0.84375 -15.890625 -1.09375 -15.890625 C -1.34375 -15.890625 -1.585938 -15.890625 -1.828125 -15.890625 C -1.972656 -15.910156 -2.113281 -15.929688 -2.25 -15.953125 C -2.382812 -15.984375 -2.441406 -16.109375 -2.421875 -16.328125 C -2.421875 -16.535156 -2.390625 -16.679688 -2.328125 -16.765625 C -2.273438 -16.859375 -2.132812 -16.921875 -1.90625 -16.953125 C -1.582031 -17.003906 -1.253906 -17.050781 -0.921875 -17.09375 C -0.597656 -17.132812 -0.273438 -17.164062 0.046875 -17.1875 C 0.390625 -17.21875 0.597656 -17.40625 0.671875 -17.75 C 0.742188 -18.082031 0.828125 -18.398438 0.921875 -18.703125 C 1.015625 -19.015625 1.113281 -19.328125 1.21875 -19.640625 C 1.332031 -19.984375 1.5625 -20.144531 1.90625 -20.125 C 2.15625 -20.113281 2.394531 -20.109375 2.625 -20.109375 C 2.851562 -20.117188 3.082031 -20.125 3.3125 -20.125 C 3.570312 -20.113281 3.726562 -20.070312 3.78125 -20 C 3.84375 -19.9375 3.875 -19.773438 3.875 -19.515625 C 3.894531 -19.078125 3.882812 -18.632812 3.84375 -18.1875 C 3.8125 -17.84375 3.820312 -17.640625 3.875 -17.578125 C 3.925781 -17.523438 4.132812 -17.5 4.5 -17.5 C 5.21875 -17.507812 5.941406 -17.539062 6.671875 -17.59375 C 7.410156 -17.644531 8.140625 -17.65625 8.859375 -17.625 C 9.171875 -17.625 9.484375 -17.625 9.796875 -17.625 C 10.117188 -17.625 10.445312 -17.609375 10.78125 -17.578125 C 11.050781 -17.554688 11.222656 -17.492188 11.296875 -17.390625 C 11.378906 -17.285156 11.40625 -17.101562 11.375 -16.84375 C 11.332031 -16.65625 11.242188 -16.554688 11.109375 -16.546875 C 10.992188 -16.523438 10.882812 -16.503906 10.78125 -16.484375 C 10.675781 -16.472656 10.5625 -16.46875 10.4375 -16.46875 C 9.4375 -16.414062 8.429688 -16.363281 7.421875 -16.3125 C 6.421875 -16.257812 5.410156 -16.195312 4.390625 -16.125 C 4.023438 -16.101562 3.804688 -16.0625 3.734375 -16 C 3.671875 -15.945312 3.613281 -15.726562 3.5625 -15.34375 C 3.457031 -14.414062 3.375 -13.484375 3.3125 -12.546875 C 3.257812 -11.609375 3.195312 -10.675781 3.125 -9.75 C 3.0625 -8.695312 3.019531 -7.648438 3 -6.609375 C 2.976562 -5.566406 2.976562 -4.519531 3 -3.46875 C 3.019531 -2.863281 3.078125 -2.265625 3.171875 -1.671875 C 3.265625 -1.085938 3.378906 -0.503906 3.515625 0.078125 C 3.566406 0.296875 3.644531 0.53125 3.75 0.78125 C 3.914062 1.125 4.09375 1.304688 4.28125 1.328125 C 4.476562 1.359375 4.707031 1.226562 4.96875 0.9375 C 5.0625 0.832031 5.144531 0.71875 5.21875 0.59375 C 5.300781 0.46875 5.378906 0.347656 5.453125 0.234375 C 5.816406 -0.367188 6.113281 -0.988281 6.34375 -1.625 C 6.570312 -2.257812 6.8125 -2.898438 7.0625 -3.546875 C 7.25 -4.046875 7.421875 -4.539062 7.578125 -5.03125 C 7.742188 -5.519531 7.914062 -6.015625 8.09375 -6.515625 C 8.125 -6.617188 8.15625 -6.722656 8.1875 -6.828125 C 8.226562 -6.929688 8.316406 -6.984375 8.453125 -6.984375 C 8.796875 -6.992188 9.085938 -6.90625 9.328125 -6.71875 C 9.378906 -6.664062 9.40625 -6.609375 9.40625 -6.546875 C 9.40625 -6.492188 9.394531 -6.441406 9.375 -6.390625 C 9.050781 -5.265625 8.734375 -4.144531 8.421875 -3.03125 C 8.109375 -1.925781 7.679688 -0.851562 7.140625 0.1875 C 7.035156 0.382812 6.90625 0.585938 6.75 0.796875 C 6.257812 1.503906 5.660156 1.941406 4.953125 2.109375 C 4.253906 2.273438 3.507812 2.234375 2.71875 1.984375 C 2.425781 1.898438 2.175781 1.742188 1.96875 1.515625 C 1.757812 1.296875 1.578125 1.050781 1.421875 0.78125 C 1.097656 0.175781 0.835938 -0.453125 0.640625 -1.109375 C 0.441406 -1.765625 0.289062 -2.425781 0.1875 -3.09375 Z M 0.1875 -3.09375 "/></g></g></g><g clip-path="url(#94feef2350)"><g fill="#f9f7dc" fill-opacity="1"><g transform="translate(71.534672, 24.412499)"><g><path d="M 6.359375 -7.359375 C 6.359375 -7.359375 6.316406 -7.34375 6.234375 -7.3125 C 6.234375 -7.257812 6.234375 -7.207031 6.234375 -7.15625 C 6.234375 -7.101562 6.238281 -7.050781 6.25 -7 C 6.476562 -6.15625 6.546875 -5.320312 6.453125 -4.5 C 6.359375 -3.6875 6.144531 -2.882812 5.8125 -2.09375 C 5.445312 -1.21875 4.925781 -0.601562 4.25 -0.25 C 3.570312 0.09375 2.773438 0.160156 1.859375 -0.046875 C 1.378906 -0.171875 0.972656 -0.375 0.640625 -0.65625 C 0.316406 -0.9375 0.0507812 -1.285156 -0.15625 -1.703125 C -0.394531 -2.171875 -0.550781 -2.648438 -0.625 -3.140625 C -0.707031 -3.628906 -0.734375 -4.125 -0.703125 -4.625 C -0.609375 -5.539062 -0.425781 -6.421875 -0.15625 -7.265625 C 0.101562 -8.117188 0.484375 -8.925781 0.984375 -9.6875 C 1.140625 -9.925781 1.304688 -10.15625 1.484375 -10.375 C 1.660156 -10.59375 1.863281 -10.785156 2.09375 -10.953125 C 2.488281 -11.242188 2.84375 -11.390625 3.15625 -11.390625 C 3.476562 -11.390625 3.832031 -11.253906 4.21875 -10.984375 C 4.363281 -10.859375 4.507812 -10.734375 4.65625 -10.609375 C 4.8125 -10.484375 4.957031 -10.347656 5.09375 -10.203125 C 5.195312 -10.097656 5.300781 -9.992188 5.40625 -9.890625 C 5.507812 -9.796875 5.613281 -9.695312 5.71875 -9.59375 C 6.332031 -8.945312 7.007812 -8.488281 7.75 -8.21875 C 8.488281 -7.957031 9.304688 -7.945312 10.203125 -8.1875 C 10.347656 -8.226562 10.492188 -8.257812 10.640625 -8.28125 C 10.785156 -8.3125 10.925781 -8.332031 11.0625 -8.34375 C 11.175781 -8.382812 11.28125 -8.382812 11.375 -8.34375 C 11.476562 -8.3125 11.546875 -8.226562 11.578125 -8.09375 C 11.648438 -7.8125 11.535156 -7.628906 11.234375 -7.546875 C 10.515625 -7.367188 9.785156 -7.234375 9.046875 -7.140625 C 8.316406 -7.046875 7.582031 -7.085938 6.84375 -7.265625 C 6.757812 -7.296875 6.675781 -7.316406 6.59375 -7.328125 C 6.519531 -7.335938 6.441406 -7.347656 6.359375 -7.359375 Z M 3.71875 -9.046875 C 3.664062 -9.117188 3.613281 -9.1875 3.5625 -9.25 C 3.507812 -9.320312 3.429688 -9.375 3.328125 -9.40625 C 3.191406 -9.25 3.082031 -9.078125 3 -8.890625 C 2.914062 -8.710938 2.835938 -8.53125 2.765625 -8.34375 C 2.609375 -7.84375 2.476562 -7.332031 2.375 -6.8125 C 2.269531 -6.300781 2.1875 -5.785156 2.125 -5.265625 C 2.03125 -4.710938 1.988281 -4.160156 2 -3.609375 C 2.007812 -3.066406 2.101562 -2.519531 2.28125 -1.96875 C 2.3125 -1.820312 2.351562 -1.679688 2.40625 -1.546875 C 2.457031 -1.410156 2.535156 -1.28125 2.640625 -1.15625 C 2.910156 -0.800781 3.21875 -0.773438 3.5625 -1.078125 C 3.800781 -1.304688 4.007812 -1.601562 4.1875 -1.96875 C 4.769531 -3.1875 5.003906 -4.382812 4.890625 -5.5625 C 4.785156 -6.75 4.394531 -7.910156 3.71875 -9.046875 Z M 3.71875 -9.046875 "/></g></g></g></g></g></g><g transform="matrix(1, 0, 0, 1, 84, 69)"><g clip-path="url(#1b3c416d71)"><g clip-path="url(#696b69e4e9)"><g fill="#f9f7dc" fill-opacity="1"><g transform="translate(1.040229, 23.984262)"><g><path d="M 3.59375 -2.421875 C 3.46875 -2.546875 3.34375 -2.679688 3.21875 -2.828125 C 3.09375 -2.972656 2.925781 -3.109375 2.71875 -3.234375 C 2.675781 -2.835938 2.640625 -2.453125 2.609375 -2.078125 C 2.585938 -1.710938 2.5625 -1.359375 2.53125 -1.015625 C 2.53125 -0.765625 2.523438 -0.523438 2.515625 -0.296875 C 2.503906 -0.0664062 2.5 0.160156 2.5 0.390625 C 2.519531 0.679688 2.375 0.828125 2.0625 0.828125 C 1.957031 0.828125 1.859375 0.828125 1.765625 0.828125 C 1.671875 0.828125 1.570312 0.828125 1.46875 0.828125 C 1.164062 0.828125 0.953125 0.820312 0.828125 0.8125 C 0.703125 0.800781 0.617188 0.726562 0.578125 0.59375 C 0.535156 0.46875 0.476562 0.226562 0.40625 -0.125 C 0.0078125 -2.101562 -0.171875 -4.085938 -0.140625 -6.078125 C -0.117188 -8.078125 -0.0546875 -10.070312 0.046875 -12.0625 C 0.0976562 -13.03125 0.160156 -13.992188 0.234375 -14.953125 C 0.316406 -15.910156 0.421875 -16.863281 0.546875 -17.8125 C 0.554688 -18.007812 0.578125 -18.203125 0.609375 -18.390625 C 0.648438 -18.585938 0.6875 -18.78125 0.71875 -18.96875 C 0.769531 -19.25 0.9375 -19.394531 1.21875 -19.40625 C 1.476562 -19.40625 1.734375 -19.421875 1.984375 -19.453125 C 2.234375 -19.492188 2.484375 -19.515625 2.734375 -19.515625 C 3.046875 -19.515625 3.203125 -19.347656 3.203125 -19.015625 C 3.203125 -18.484375 3.203125 -17.941406 3.203125 -17.390625 C 3.203125 -16.835938 3.1875 -16.285156 3.15625 -15.734375 C 3.113281 -15.015625 3.078125 -14.285156 3.046875 -13.546875 C 3.015625 -12.816406 2.984375 -12.070312 2.953125 -11.3125 C 3.085938 -11.363281 3.179688 -11.4375 3.234375 -11.53125 C 3.296875 -11.632812 3.363281 -11.726562 3.4375 -11.8125 C 3.75 -12.226562 4.082031 -12.625 4.4375 -13 C 4.800781 -13.375 5.21875 -13.703125 5.6875 -13.984375 C 6.082031 -14.222656 6.488281 -14.394531 6.90625 -14.5 C 7.332031 -14.613281 7.78125 -14.628906 8.25 -14.546875 C 8.8125 -14.441406 9.265625 -14.195312 9.609375 -13.8125 C 9.953125 -13.425781 10.144531 -12.945312 10.1875 -12.375 C 10.195312 -11.945312 10.160156 -11.53125 10.078125 -11.125 C 9.992188 -10.71875 9.835938 -10.316406 9.609375 -9.921875 C 9.109375 -9.054688 8.507812 -8.296875 7.8125 -7.640625 C 7.113281 -6.992188 6.289062 -6.472656 5.34375 -6.078125 C 5.101562 -5.972656 4.847656 -5.894531 4.578125 -5.84375 C 4.316406 -5.789062 4.023438 -5.726562 3.703125 -5.65625 C 4.109375 -5.175781 4.46875 -4.679688 4.78125 -4.171875 C 5.101562 -3.660156 5.472656 -3.203125 5.890625 -2.796875 C 6.835938 -1.804688 7.820312 -1.78125 8.84375 -2.71875 C 9.0625 -2.925781 9.257812 -3.148438 9.4375 -3.390625 C 9.625 -3.628906 9.796875 -3.882812 9.953125 -4.15625 C 10.316406 -4.78125 10.644531 -5.425781 10.9375 -6.09375 C 11.226562 -6.769531 11.519531 -7.441406 11.8125 -8.109375 C 11.976562 -8.492188 12.148438 -8.722656 12.328125 -8.796875 C 12.503906 -8.878906 12.78125 -8.859375 13.15625 -8.734375 C 13.375 -8.660156 13.453125 -8.515625 13.390625 -8.296875 C 13.078125 -7.347656 12.71875 -6.414062 12.3125 -5.5 C 11.90625 -4.59375 11.394531 -3.742188 10.78125 -2.953125 C 10.15625 -2.191406 9.425781 -1.660156 8.59375 -1.359375 C 7.757812 -1.054688 6.898438 -0.992188 6.015625 -1.171875 C 5.140625 -1.359375 4.332031 -1.773438 3.59375 -2.421875 Z M 6.671875 -12.953125 C 5.859375 -12.222656 5.1875 -11.398438 4.65625 -10.484375 C 4.132812 -9.578125 3.691406 -8.570312 3.328125 -7.46875 C 4.109375 -7.65625 4.789062 -7.914062 5.375 -8.25 C 5.957031 -8.59375 6.472656 -9.03125 6.921875 -9.5625 C 7.203125 -9.90625 7.46875 -10.257812 7.71875 -10.625 C 7.96875 -10.988281 8.132812 -11.394531 8.21875 -11.84375 C 8.25 -12.03125 8.273438 -12.21875 8.296875 -12.40625 C 8.316406 -12.59375 8.304688 -12.789062 8.265625 -13 C 8.128906 -13.53125 7.820312 -13.664062 7.34375 -13.40625 C 7.082031 -13.269531 6.859375 -13.117188 6.671875 -12.953125 Z M 6.671875 -12.953125 "/></g></g></g></g><g fill="#f9f7dc" fill-opacity="1"><g transform="translate(12.619324, 23.984262)"><g><path d="M 14.53125 -7.546875 C 14.769531 -7.492188 14.921875 -7.425781 14.984375 -7.34375 C 15.054688 -7.269531 15.054688 -7.113281 14.984375 -6.875 C 14.710938 -5.820312 14.382812 -4.796875 14 -3.796875 C 13.625 -2.796875 13.144531 -1.847656 12.5625 -0.953125 C 12.320312 -0.585938 12.070312 -0.285156 11.8125 -0.046875 C 11.445312 0.273438 10.976562 0.476562 10.40625 0.5625 C 9.84375 0.65625 9.347656 0.597656 8.921875 0.390625 C 8.671875 0.285156 8.476562 0.140625 8.34375 -0.046875 C 8.207031 -0.242188 8.085938 -0.460938 7.984375 -0.703125 C 7.828125 -1.097656 7.710938 -1.503906 7.640625 -1.921875 C 7.578125 -2.347656 7.535156 -2.773438 7.515625 -3.203125 C 7.460938 -4.078125 7.46875 -4.953125 7.53125 -5.828125 C 7.59375 -6.703125 7.640625 -7.578125 7.671875 -8.453125 C 7.722656 -9.398438 7.65625 -10.347656 7.46875 -11.296875 C 7.4375 -11.429688 7.394531 -11.578125 7.34375 -11.734375 C 7.300781 -11.898438 7.1875 -12.003906 7 -12.046875 C 6.832031 -12.078125 6.695312 -12.035156 6.59375 -11.921875 C 6.488281 -11.816406 6.382812 -11.703125 6.28125 -11.578125 C 5.300781 -10.359375 4.550781 -9.003906 4.03125 -7.515625 C 3.613281 -6.328125 3.25 -5.125 2.9375 -3.90625 C 2.632812 -2.695312 2.367188 -1.484375 2.140625 -0.265625 C 2.078125 0.0859375 2.007812 0.285156 1.9375 0.328125 C 1.863281 0.378906 1.664062 0.414062 1.34375 0.4375 C 1.21875 0.4375 1.09375 0.441406 0.96875 0.453125 C 0.851562 0.460938 0.738281 0.46875 0.625 0.46875 C 0.226562 0.5 -0.015625 0.472656 -0.109375 0.390625 C -0.210938 0.316406 -0.289062 0.0976562 -0.34375 -0.265625 C -0.40625 -0.710938 -0.46875 -1.160156 -0.53125 -1.609375 C -0.601562 -2.054688 -0.648438 -2.503906 -0.671875 -2.953125 C -0.742188 -4.585938 -0.734375 -6.21875 -0.640625 -7.84375 C -0.554688 -9.46875 -0.378906 -11.09375 -0.109375 -12.71875 C -0.109375 -12.78125 -0.09375 -12.847656 -0.0625 -12.921875 C -0.0390625 -12.992188 -0.03125 -13.0625 -0.03125 -13.125 C 0.0078125 -13.46875 0.207031 -13.632812 0.5625 -13.625 C 0.976562 -13.625 1.421875 -13.628906 1.890625 -13.640625 C 2.203125 -13.660156 2.375 -13.507812 2.40625 -13.1875 C 2.414062 -12.957031 2.421875 -12.757812 2.421875 -12.59375 C 2.421875 -11.945312 2.421875 -11.300781 2.421875 -10.65625 C 2.421875 -10.007812 2.421875 -9.359375 2.421875 -8.703125 C 2.421875 -8.597656 2.421875 -8.484375 2.421875 -8.359375 C 2.421875 -8.242188 2.421875 -8.109375 2.421875 -7.953125 C 2.566406 -8.054688 2.660156 -8.171875 2.703125 -8.296875 C 2.742188 -8.421875 2.789062 -8.53125 2.84375 -8.625 C 3.101562 -9.164062 3.375 -9.6875 3.65625 -10.1875 C 3.9375 -10.695312 4.257812 -11.1875 4.625 -11.65625 C 4.914062 -12.019531 5.238281 -12.328125 5.59375 -12.578125 C 5.945312 -12.835938 6.359375 -13.019531 6.828125 -13.125 C 7.859375 -13.363281 8.640625 -13.019531 9.171875 -12.09375 C 9.347656 -11.78125 9.472656 -11.453125 9.546875 -11.109375 C 9.628906 -10.765625 9.6875 -10.421875 9.71875 -10.078125 C 9.75 -9.578125 9.757812 -9.078125 9.75 -8.578125 C 9.75 -8.078125 9.722656 -7.578125 9.671875 -7.078125 C 9.578125 -6.148438 9.515625 -5.21875 9.484375 -4.28125 C 9.453125 -3.34375 9.539062 -2.40625 9.75 -1.46875 C 9.75 -1.414062 9.75 -1.367188 9.75 -1.328125 C 9.757812 -1.285156 9.773438 -1.238281 9.796875 -1.1875 C 9.847656 -1.03125 9.894531 -0.863281 9.9375 -0.6875 C 9.976562 -0.519531 10.101562 -0.421875 10.3125 -0.390625 C 10.5 -0.359375 10.65625 -0.40625 10.78125 -0.53125 C 10.914062 -0.65625 11.035156 -0.789062 11.140625 -0.9375 C 11.304688 -1.132812 11.457031 -1.359375 11.59375 -1.609375 C 11.738281 -1.859375 11.878906 -2.109375 12.015625 -2.359375 C 12.410156 -3.109375 12.765625 -3.878906 13.078125 -4.671875 C 13.390625 -5.460938 13.679688 -6.265625 13.953125 -7.078125 C 13.984375 -7.210938 14.03125 -7.335938 14.09375 -7.453125 C 14.15625 -7.566406 14.300781 -7.597656 14.53125 -7.546875 Z M 14.53125 -7.546875 "/></g></g></g><g fill="#f9f7dc" fill-opacity="1"><g transform="translate(26.369501, 23.984262)"><g><path d="M 6.359375 -7.359375 C 6.359375 -7.359375 6.316406 -7.34375 6.234375 -7.3125 C 6.234375 -7.257812 6.234375 -7.207031 6.234375 -7.15625 C 6.234375 -7.101562 6.238281 -7.050781 6.25 -7 C 6.476562 -6.15625 6.546875 -5.320312 6.453125 -4.5 C 6.359375 -3.6875 6.144531 -2.882812 5.8125 -2.09375 C 5.445312 -1.21875 4.925781 -0.601562 4.25 -0.25 C 3.570312 0.09375 2.773438 0.160156 1.859375 -0.046875 C 1.378906 -0.171875 0.972656 -0.375 0.640625 -0.65625 C 0.316406 -0.9375 0.0507812 -1.285156 -0.15625 -1.703125 C -0.394531 -2.171875 -0.550781 -2.648438 -0.625 -3.140625 C -0.707031 -3.628906 -0.734375 -4.125 -0.703125 -4.625 C -0.609375 -5.539062 -0.425781 -6.421875 -0.15625 -7.265625 C 0.101562 -8.117188 0.484375 -8.925781 0.984375 -9.6875 C 1.140625 -9.925781 1.304688 -10.15625 1.484375 -10.375 C 1.660156 -10.59375 1.863281 -10.785156 2.09375 -10.953125 C 2.488281 -11.242188 2.84375 -11.390625 3.15625 -11.390625 C 3.476562 -11.390625 3.832031 -11.253906 4.21875 -10.984375 C 4.363281 -10.859375 4.507812 -10.734375 4.65625 -10.609375 C 4.8125 -10.484375 4.957031 -10.347656 5.09375 -10.203125 C 5.195312 -10.097656 5.300781 -9.992188 5.40625 -9.890625 C 5.507812 -9.796875 5.613281 -9.695312 5.71875 -9.59375 C 6.332031 -8.945312 7.007812 -8.488281 7.75 -8.21875 C 8.488281 -7.957031 9.304688 -7.945312 10.203125 -8.1875 C 10.347656 -8.226562 10.492188 -8.257812 10.640625 -8.28125 C 10.785156 -8.3125 10.925781 -8.332031 11.0625 -8.34375 C 11.175781 -8.382812 11.28125 -8.382812 11.375 -8.34375 C 11.476562 -8.3125 11.546875 -8.226562 11.578125 -8.09375 C 11.648438 -7.8125 11.535156 -7.628906 11.234375 -7.546875 C 10.515625 -7.367188 9.785156 -7.234375 9.046875 -7.140625 C 8.316406 -7.046875 7.582031 -7.085938 6.84375 -7.265625 C 6.757812 -7.296875 6.675781 -7.316406 6.59375 -7.328125 C 6.519531 -7.335938 6.441406 -7.347656 6.359375 -7.359375 Z M 3.71875 -9.046875 C 3.664062 -9.117188 3.613281 -9.1875 3.5625 -9.25 C 3.507812 -9.320312 3.429688 -9.375 3.328125 -9.40625 C 3.191406 -9.25 3.082031 -9.078125 3 -8.890625 C 2.914062 -8.710938 2.835938 -8.53125 2.765625 -8.34375 C 2.609375 -7.84375 2.476562 -7.332031 2.375 -6.8125 C 2.269531 -6.300781 2.1875 -5.785156 2.125 -5.265625 C 2.03125 -4.710938 1.988281 -4.160156 2 -3.609375 C 2.007812 -3.066406 2.101562 -2.519531 2.28125 -1.96875 C 2.3125 -1.820312 2.351562 -1.679688 2.40625 -1.546875 C 2.457031 -1.410156 2.535156 -1.28125 2.640625 -1.15625 C 2.910156 -0.800781 3.21875 -0.773438 3.5625 -1.078125 C 3.800781 -1.304688 4.007812 -1.601562 4.1875 -1.96875 C 4.769531 -3.1875 5.003906 -4.382812 4.890625 -5.5625 C 4.785156 -6.75 4.394531 -7.910156 3.71875 -9.046875 Z M 3.71875 -9.046875 "/></g></g></g><g fill="#f9f7dc" fill-opacity="1"><g transform="translate(36.682131, 23.984262)"><g><path d="M 6.640625 -5.0625 C 6.617188 -5.132812 6.601562 -5.21875 6.59375 -5.3125 C 6.59375 -5.40625 6.539062 -5.53125 6.4375 -5.6875 C 6.3125 -5.238281 6.203125 -4.816406 6.109375 -4.421875 C 6.015625 -4.035156 5.914062 -3.664062 5.8125 -3.3125 C 5.625 -2.601562 5.425781 -1.90625 5.21875 -1.21875 C 5.007812 -0.53125 4.757812 0.140625 4.46875 0.796875 C 4.25 1.316406 3.988281 1.65625 3.6875 1.8125 C 3.382812 1.96875 2.945312 2.007812 2.375 1.9375 C 1.820312 1.863281 1.410156 1.570312 1.140625 1.0625 C 0.859375 0.488281 0.628906 -0.09375 0.453125 -0.6875 C 0.285156 -1.28125 0.160156 -1.882812 0.078125 -2.5 C -0.148438 -4.09375 -0.210938 -5.675781 -0.109375 -7.25 C -0.00390625 -8.820312 0.238281 -10.382812 0.625 -11.9375 C 0.632812 -12.019531 0.648438 -12.097656 0.671875 -12.171875 C 0.703125 -12.253906 0.738281 -12.34375 0.78125 -12.4375 C 0.84375 -12.757812 1.046875 -12.921875 1.390625 -12.921875 C 1.535156 -12.921875 1.671875 -12.925781 1.796875 -12.9375 C 1.921875 -12.945312 2.054688 -12.953125 2.203125 -12.953125 C 2.546875 -12.960938 2.769531 -12.914062 2.875 -12.8125 C 2.976562 -12.707031 3.007812 -12.492188 2.96875 -12.171875 C 2.957031 -11.742188 2.925781 -11.316406 2.875 -10.890625 C 2.832031 -10.472656 2.804688 -10.046875 2.796875 -9.609375 C 2.742188 -8.210938 2.71875 -6.8125 2.71875 -5.40625 C 2.71875 -4.007812 2.820312 -2.613281 3.03125 -1.21875 C 3.0625 -1.0625 3.085938 -0.882812 3.109375 -0.6875 C 3.140625 -0.488281 3.238281 -0.378906 3.40625 -0.359375 C 3.613281 -0.347656 3.734375 -0.441406 3.765625 -0.640625 C 3.804688 -0.835938 3.84375 -1.007812 3.875 -1.15625 C 4.351562 -2.832031 4.828125 -4.507812 5.296875 -6.1875 C 5.765625 -7.863281 6.171875 -9.554688 6.515625 -11.265625 C 6.566406 -11.546875 6.628906 -11.710938 6.703125 -11.765625 C 6.785156 -11.828125 6.953125 -11.867188 7.203125 -11.890625 C 7.671875 -11.898438 8.015625 -11.875 8.234375 -11.8125 C 8.460938 -11.757812 8.613281 -11.625 8.6875 -11.40625 C 8.769531 -11.195312 8.828125 -10.859375 8.859375 -10.390625 C 8.960938 -9.046875 9.148438 -7.71875 9.421875 -6.40625 C 9.691406 -5.09375 10.003906 -3.789062 10.359375 -2.5 C 10.410156 -2.3125 10.472656 -2.117188 10.546875 -1.921875 C 10.628906 -1.722656 10.707031 -1.53125 10.78125 -1.34375 C 10.84375 -1.207031 10.914062 -1.066406 11 -0.921875 C 11.09375 -0.785156 11.234375 -0.726562 11.421875 -0.75 C 11.609375 -0.75 11.753906 -0.800781 11.859375 -0.90625 C 11.960938 -1.019531 12.050781 -1.15625 12.125 -1.3125 C 12.207031 -1.507812 12.296875 -1.707031 12.390625 -1.90625 C 12.484375 -2.101562 12.566406 -2.300781 12.640625 -2.5 C 12.878906 -3.226562 13.070312 -3.960938 13.21875 -4.703125 C 13.363281 -5.441406 13.472656 -6.191406 13.546875 -6.953125 C 13.578125 -7.347656 13.4375 -7.679688 13.125 -7.953125 C 12.539062 -8.523438 12.050781 -9.15625 11.65625 -9.84375 C 11.257812 -10.53125 10.972656 -11.289062 10.796875 -12.125 C 10.742188 -12.4375 10.71875 -12.742188 10.71875 -13.046875 C 10.71875 -13.359375 10.769531 -13.671875 10.875 -13.984375 C 11.070312 -14.546875 11.425781 -14.957031 11.9375 -15.21875 C 12.332031 -15.425781 12.726562 -15.460938 13.125 -15.328125 C 13.519531 -15.203125 13.847656 -14.941406 14.109375 -14.546875 C 14.316406 -14.203125 14.476562 -13.835938 14.59375 -13.453125 C 14.71875 -13.078125 14.816406 -12.6875 14.890625 -12.28125 C 14.972656 -11.738281 15.035156 -11.195312 15.078125 -10.65625 C 15.117188 -10.113281 15.140625 -9.566406 15.140625 -9.015625 C 15.140625 -8.617188 15.195312 -8.335938 15.3125 -8.171875 C 15.425781 -8.015625 15.660156 -7.898438 16.015625 -7.828125 C 16.484375 -7.722656 16.957031 -7.640625 17.4375 -7.578125 C 17.925781 -7.523438 18.421875 -7.53125 18.921875 -7.59375 C 18.972656 -7.59375 19.023438 -7.597656 19.078125 -7.609375 C 19.140625 -7.617188 19.207031 -7.625 19.28125 -7.625 C 19.414062 -7.644531 19.539062 -7.640625 19.65625 -7.609375 C 19.769531 -7.585938 19.832031 -7.472656 19.84375 -7.265625 C 19.863281 -7.035156 19.84375 -6.875 19.78125 -6.78125 C 19.71875 -6.6875 19.585938 -6.625 19.390625 -6.59375 C 18.898438 -6.519531 18.414062 -6.488281 17.9375 -6.5 C 17.46875 -6.507812 17.003906 -6.554688 16.546875 -6.640625 C 16.347656 -6.671875 16.160156 -6.695312 15.984375 -6.71875 C 15.804688 -6.75 15.628906 -6.785156 15.453125 -6.828125 C 15.179688 -6.890625 15.023438 -6.769531 14.984375 -6.46875 C 14.921875 -6.050781 14.859375 -5.628906 14.796875 -5.203125 C 14.734375 -4.785156 14.660156 -4.367188 14.578125 -3.953125 C 14.492188 -3.453125 14.378906 -2.957031 14.234375 -2.46875 C 14.097656 -1.988281 13.921875 -1.523438 13.703125 -1.078125 C 13.367188 -0.410156 12.898438 0.078125 12.296875 0.390625 C 11.691406 0.703125 11.054688 0.804688 10.390625 0.703125 C 9.734375 0.597656 9.140625 0.273438 8.609375 -0.265625 C 8.316406 -0.554688 8.066406 -0.878906 7.859375 -1.234375 C 7.648438 -1.597656 7.46875 -1.976562 7.3125 -2.375 C 7.144531 -2.8125 7.007812 -3.253906 6.90625 -3.703125 C 6.800781 -4.148438 6.710938 -4.601562 6.640625 -5.0625 Z M 12.875 -13.265625 C 12.820312 -12.828125 12.847656 -12.414062 12.953125 -12.03125 C 13.066406 -11.65625 13.238281 -11.289062 13.46875 -10.9375 C 13.414062 -11.332031 13.363281 -11.726562 13.3125 -12.125 C 13.257812 -12.53125 13.113281 -12.910156 12.875 -13.265625 Z M 12.875 -13.265625 "/></g></g></g></g></g></svg>